<svg width="551" height="541" viewBox="0 0 551 541" fill="none" xmlns="http://www.w3.org/2000/svg">
<path d="M285.634 547.66C430.626 547.66 548.166 544.035 548.166 539.563C548.166 535.092 430.626 531.467 285.634 531.467C140.642 531.467 23.103 535.092 23.103 539.563C23.103 544.035 140.642 547.66 285.634 547.66Z" fill="#F5F5F5"/>
<path d="M443.177 295.66C497.371 223.766 490.208 125.82 427.178 76.8916C364.148 27.9635 269.119 46.5815 214.925 118.476C160.731 190.37 167.894 288.316 230.924 337.244C293.954 386.172 388.983 367.554 443.177 295.66Z" fill="#F5F5F5"/>
<path d="M329.028 7.35098L321.028 21.4099H337.027L329.028 7.35098Z" fill="#546CFF"/>
<path d="M28.7598 109.983L20.7613 124.044H36.7582L28.7598 109.983Z" fill="#FF692D"/>
<path d="M528.021 288.411L536.02 274.352H520.021L528.021 288.411Z" fill="#FFCD01"/>
<path d="M548.009 182.833L543.829 179.352C545.212 177.639 545.755 175.221 545.317 172.711C544.879 170.203 543.549 168.121 541.671 166.997L544.417 162.269C547.657 164.209 549.927 167.665 550.641 171.754C551.355 175.844 550.395 179.88 548.009 182.833Z" fill="#546CFF"/>
<path d="M400.518 179.619C399.447 175.957 400.108 171.859 402.332 168.373C404.556 164.888 407.97 162.597 411.7 162.088L412.421 167.528C410.258 167.823 408.236 169.218 406.874 171.357C405.509 173.495 405.084 175.938 405.703 178.061L400.518 179.619Z" fill="#FF692D"/>
<path d="M448.596 108.909C447.551 108.909 446.51 108.776 445.499 108.509L446.87 103.2C448.983 103.761 451.373 103.25 453.435 101.797C455.497 100.345 456.806 98.2488 457.027 96.0467L462.407 96.6024C462.027 100.401 459.88 103.938 456.519 106.307C454.09 108.015 451.321 108.909 448.596 108.909Z" fill="#FF692D"/>
<path d="M124.514 79.831C122.213 79.831 119.86 79.2122 117.688 77.998C114.105 75.9935 111.612 72.698 110.848 68.9579L116.144 67.8452C116.586 70.013 118.1 71.9612 120.298 73.1905C122.497 74.4198 124.928 74.6805 126.97 73.9026L128.87 79.0407C127.483 79.5703 126.009 79.831 124.514 79.831Z" fill="#546CFF"/>
<path d="M4.56707 312.771L0.793642 308.84C2.35655 307.295 3.15964 304.952 2.99875 302.409C2.83787 299.867 1.7441 297.647 1.52588e-05 296.319L3.24617 291.93C6.25572 294.222 8.1323 297.913 8.39594 302.058C8.65687 306.201 7.26161 310.106 4.56707 312.771Z" fill="#FFCD01"/>
<path d="M158.644 1.10016C157.938 -2.65089 158.998 -6.66261 161.55 -9.90739C164.104 -13.1508 167.726 -15.0867 171.486 -15.217L171.672 -9.73178C169.492 -9.65632 167.342 -8.47228 165.777 -6.48151C164.21 -4.49074 163.546 -2.10209 163.956 0.0725317L158.644 1.10016Z" fill="#FFCD01"/>
<path d="M334.786 330.576C334.786 334.3 337.761 337.32 341.431 337.32H505.808V323.833H341.431C337.762 323.833 334.786 326.851 334.786 330.576Z" fill="#F2E9F8"/>
<path d="M422.05 330.576C422.05 334.3 425.024 337.32 428.695 337.32H505.808V323.833H428.695C425.024 323.833 422.05 326.851 422.05 330.576Z" fill="#F5F5F5"/>
<path d="M331.241 444.646V454.747C331.241 458.47 334.217 461.49 337.886 461.49H506.173V437.904H337.886C334.216 437.902 331.241 440.922 331.241 444.646Z" fill="#FF692D"/>
<path d="M420.499 444.646V454.746C420.499 458.47 423.475 461.49 427.144 461.49H506.173V437.904H427.144C423.475 437.902 420.499 440.922 420.499 444.646Z" fill="#F5F5F5"/>
<path d="M328.527 501.853V504.362C328.527 508.086 331.501 511.105 335.172 511.105H508.886V495.109H335.172C331.502 495.111 328.527 498.129 328.527 501.853Z" fill="#FF692D"/>
<path d="M420.556 501.853V504.362C420.556 508.086 423.53 511.105 427.201 511.105H508.887V495.109H427.201C423.53 495.111 420.556 498.129 420.556 501.853Z" fill="#F5F5F5"/>
<path d="M320.073 468.232V488.367C320.073 492.091 323.047 495.111 326.718 495.111H500.432V461.488H326.718C323.047 461.488 320.073 464.508 320.073 468.232Z" fill="#F2E9F8"/>
<path d="M412.1 468.232V488.367C412.1 492.091 415.075 495.111 418.746 495.111H500.432V461.488H418.746C415.075 461.488 412.1 464.508 412.1 468.232Z" fill="white"/>
<path d="M420.226 468.314H493.926" stroke="#F5F5F5" stroke-width="0.8" stroke-miterlimit="10" stroke-linecap="round" stroke-linejoin="round"/>
<path d="M420.226 474.112H493.926" stroke="#F5F5F5" stroke-width="0.8" stroke-miterlimit="10" stroke-linecap="round" stroke-linejoin="round"/>
<path d="M420.226 479.91H493.926" stroke="#F5F5F5" stroke-width="0.8" stroke-miterlimit="10" stroke-linecap="round" stroke-linejoin="round"/>
<path d="M328.883 344.063V365.717C328.883 369.441 331.858 372.461 335.529 372.461H499.905V337.32H335.529C331.858 337.32 328.883 340.338 328.883 344.063Z" fill="#1D1141"/>
<path d="M416.146 344.063V365.717C416.146 369.441 419.12 372.461 422.791 372.461H499.903V337.32H422.791C419.121 337.32 416.146 340.338 416.146 344.063Z" fill="white"/>
<path d="M424.697 343.293H493.926" stroke="#F5F5F5" stroke-width="0.8" stroke-miterlimit="10" stroke-linecap="round" stroke-linejoin="round"/>
<path d="M424.697 349.092H493.926" stroke="#F5F5F5" stroke-width="0.8" stroke-miterlimit="10" stroke-linecap="round" stroke-linejoin="round"/>
<path d="M424.697 354.89H493.926" stroke="#F5F5F5" stroke-width="0.8" stroke-miterlimit="10" stroke-linecap="round" stroke-linejoin="round"/>
<path d="M499.82 242.716V268.122C499.82 271.845 496.845 274.865 493.174 274.865H337.594V235.973H493.176C496.845 235.973 499.82 238.993 499.82 242.716Z" fill="#FF692D"/>
<path d="M417.045 242.716V268.122C417.045 271.845 414.07 274.865 410.4 274.865H337.594V235.973H410.4C414.069 235.973 417.045 238.993 417.045 242.716Z" fill="white"/>
<path d="M345.642 243.822H409.471" stroke="#F5F5F5" stroke-width="0.8" stroke-miterlimit="10" stroke-linecap="round" stroke-linejoin="round"/>
<path d="M345.642 249.62H409.471" stroke="#F5F5F5" stroke-width="0.8" stroke-miterlimit="10" stroke-linecap="round" stroke-linejoin="round"/>
<path d="M345.642 255.418H409.471" stroke="#F5F5F5" stroke-width="0.8" stroke-miterlimit="10" stroke-linecap="round" stroke-linejoin="round"/>
<path d="M487.419 249.62H439.074V260.633H487.419V249.62Z" stroke="#1D1141" stroke-width="0.8" stroke-miterlimit="10" stroke-linecap="round" stroke-linejoin="round"/>
<path d="M328.527 517.849V530.753C328.527 534.476 331.501 537.496 335.172 537.496H508.886V511.105H335.172C331.502 511.105 328.527 514.125 328.527 517.849Z" fill="#1D1141"/>
<path d="M420.556 517.849V530.753C420.556 534.476 423.53 537.496 427.201 537.496H508.887V511.105H427.201C423.53 511.105 420.556 514.125 420.556 517.849Z" fill="white"/>
<path d="M427.872 517.775H501.57" stroke="#F5F5F5" stroke-width="0.8" stroke-miterlimit="10" stroke-linecap="round" stroke-linejoin="round"/>
<path d="M427.872 523.571H501.57" stroke="#F5F5F5" stroke-width="0.8" stroke-miterlimit="10" stroke-linecap="round" stroke-linejoin="round"/>
<path d="M413.396 516.164V531.681" stroke="white" stroke-width="0.8" stroke-miterlimit="10" stroke-linecap="round" stroke-linejoin="round"/>
<path d="M340.516 379.203V431.159C340.516 434.883 343.49 437.902 347.161 437.902H515.447V372.459H347.161C343.49 372.461 340.516 375.479 340.516 379.203Z" fill="#546CFF"/>
<path d="M429.774 379.203V431.159C429.774 434.883 432.748 437.902 436.419 437.902H515.447V372.459H436.419C432.75 372.461 429.774 375.479 429.774 379.203Z" fill="#F5F5F5"/>
<path d="M442.426 381.442H507.876" stroke="white" stroke-width="0.8" stroke-miterlimit="10" stroke-linecap="round" stroke-linejoin="round"/>
<path d="M442.426 387.24H507.876" stroke="white" stroke-width="0.8" stroke-miterlimit="10" stroke-linecap="round" stroke-linejoin="round"/>
<path d="M442.426 393.038H507.876" stroke="white" stroke-width="0.8" stroke-miterlimit="10" stroke-linecap="round" stroke-linejoin="round"/>
<path d="M418.708 379.975V430.902" stroke="#1D1141" stroke-width="0.8" stroke-miterlimit="10" stroke-linecap="round" stroke-linejoin="round"/>
<path d="M411.316 379.975V430.902" stroke="#1D1141" stroke-width="0.8" stroke-miterlimit="10" stroke-linecap="round" stroke-linejoin="round"/>
<path d="M330.45 299.255V317.09C330.45 320.813 333.425 323.833 337.096 323.833H492.677V292.512H337.096C333.426 292.512 330.45 295.531 330.45 299.255Z" fill="#FFCD01"/>
<path d="M413.227 299.255V317.09C413.227 320.813 416.201 323.833 419.872 323.833H492.677V292.512H419.872C416.201 292.512 413.227 295.531 413.227 299.255Z" fill="#F5F5F5"/>
<path d="M420.329 300.033H483.535" stroke="white" stroke-width="0.8" stroke-miterlimit="10" stroke-linecap="round" stroke-linejoin="round"/>
<path d="M420.329 305.831H483.535" stroke="white" stroke-width="0.8" stroke-miterlimit="10" stroke-linecap="round" stroke-linejoin="round"/>
<path d="M420.329 311.629H483.535" stroke="white" stroke-width="0.8" stroke-miterlimit="10" stroke-linecap="round" stroke-linejoin="round"/>
<path d="M402.092 298.584V319.078" stroke="#1D1141" stroke-width="0.8" stroke-miterlimit="10" stroke-linecap="round" stroke-linejoin="round"/>
<path d="M396.454 298.584V319.078" stroke="#1D1141" stroke-width="0.8" stroke-miterlimit="10" stroke-linecap="round" stroke-linejoin="round"/>
<path d="M492.677 281.607V285.768C492.677 289.492 489.701 292.512 486.032 292.512H330.45V274.864H486.032C489.701 274.864 492.677 277.883 492.677 281.607Z" fill="#546CFF"/>
<path d="M409.902 281.607V285.768C409.902 289.492 406.926 292.512 403.257 292.512H330.451V274.864H403.257C406.926 274.864 409.902 277.883 409.902 281.607Z" fill="white"/>
<path d="M338.261 281.269H402.092" stroke="#F5F5F5" stroke-width="0.8" stroke-miterlimit="10" stroke-linecap="round" stroke-linejoin="round"/>
<path d="M338.261 287.068H402.092" stroke="#F5F5F5" stroke-width="0.8" stroke-miterlimit="10" stroke-linecap="round" stroke-linejoin="round"/>
<path d="M482.21 279.039V288.135" stroke="#1D1141" stroke-width="0.8" stroke-miterlimit="10" stroke-linecap="round" stroke-linejoin="round"/>
<path d="M475.151 279.039V288.135" stroke="#1D1141" stroke-width="0.8" stroke-miterlimit="10" stroke-linecap="round" stroke-linejoin="round"/>
<path d="M403.298 367.228C403.298 370.588 400.614 373.311 397.303 373.311H243.544V361.145H397.303C400.614 361.145 403.298 363.868 403.298 367.228Z" fill="#F2E9F8"/>
<path d="M321.784 367.228C321.784 370.588 319.1 373.311 315.789 373.311H243.544V361.145H315.789C319.1 361.145 321.784 363.868 321.784 367.228Z" fill="white"/>
<path d="M250.327 433.183V435.914C250.327 439.274 253.011 441.998 256.322 441.998H410.081V427.099H256.32C253.011 427.099 250.327 429.823 250.327 433.183Z" fill="#F2E9F8"/>
<path d="M331.84 433.183V435.914C331.84 439.274 334.524 441.998 337.835 441.998H410.081V427.099H337.835C334.524 427.099 331.84 429.823 331.84 433.183Z" fill="white"/>
<path d="M240.196 398.171V421.017C240.196 424.377 242.88 427.101 246.191 427.101H399.95V392.087H246.19C242.88 392.087 240.196 394.811 240.196 398.171Z" fill="#FFCD01"/>
<path d="M321.71 398.171V421.017C321.71 424.377 324.393 427.101 327.705 427.101H404.527V392.087H327.705C324.393 392.087 321.71 394.811 321.71 398.171Z" fill="#F5F5F5"/>
<path d="M330.203 400.542H395.653" stroke="white" stroke-width="0.8" stroke-miterlimit="10" stroke-linecap="round" stroke-linejoin="round"/>
<path d="M330.203 406.34H395.653" stroke="white" stroke-width="0.8" stroke-miterlimit="10" stroke-linecap="round" stroke-linejoin="round"/>
<path d="M330.203 412.138H395.653" stroke="white" stroke-width="0.8" stroke-miterlimit="10" stroke-linecap="round" stroke-linejoin="round"/>
<path d="M238.491 379.395V386.004C238.491 389.364 241.175 392.087 244.486 392.087H398.245V373.311H244.486C241.175 373.311 238.491 376.035 238.491 379.395Z" fill="#F2E9F8"/>
<path d="M320.005 379.395V386.004C320.005 389.364 322.689 392.087 326 392.087H398.245V373.311H326C322.689 373.311 320.005 376.035 320.005 379.395Z" fill="white"/>
<path d="M328.103 380.045H393.555" stroke="#F5F5F5" stroke-width="0.8" stroke-miterlimit="10" stroke-linecap="round" stroke-linejoin="round"/>
<path d="M328.103 385.843H393.555" stroke="#F5F5F5" stroke-width="0.8" stroke-miterlimit="10" stroke-linecap="round" stroke-linejoin="round"/>
<path d="M242.881 335.07V355.062C242.881 358.422 245.565 361.146 248.876 361.146H400.687V328.988H248.876C245.565 328.986 242.881 331.71 242.881 335.07Z" fill="#FF692D"/>
<path d="M323.401 335.07V355.062C323.401 358.422 326.085 361.146 329.396 361.146H400.687V328.988H329.396C326.085 328.986 323.401 331.71 323.401 335.07Z" fill="white"/>
<path d="M314.523 339.069H270.038V349.092H314.523V339.069Z" stroke="#1D1141" stroke-width="0.8" stroke-miterlimit="10" stroke-linecap="round" stroke-linejoin="round"/>
<path d="M396.65 490.799V531.414C396.65 534.774 393.966 537.497 390.655 537.497H240.117V484.716H390.654C393.966 484.715 396.65 487.438 396.65 490.799Z" fill="#FFCD01"/>
<path d="M316.779 490.799V531.414C316.779 534.774 314.095 537.497 310.784 537.497H240.117V484.716H310.784C314.095 484.715 316.779 487.438 316.779 490.799Z" fill="white"/>
<path d="M243.745 491.799H306.505" stroke="#F5F5F5" stroke-width="0.8" stroke-miterlimit="10" stroke-linecap="round" stroke-linejoin="round"/>
<path d="M243.745 497.597H306.505" stroke="#F5F5F5" stroke-width="0.8" stroke-miterlimit="10" stroke-linecap="round" stroke-linejoin="round"/>
<path d="M243.745 503.395H306.505" stroke="#F5F5F5" stroke-width="0.8" stroke-miterlimit="10" stroke-linecap="round" stroke-linejoin="round"/>
<path d="M386.479 503.395H328.527V518.307H386.479V503.395Z" stroke="#1D1141" stroke-width="0.8" stroke-miterlimit="10" stroke-linecap="round" stroke-linejoin="round"/>
<path d="M246.552 448.081V478.633C246.552 481.993 249.236 484.716 252.547 484.716H396.65V441.998H252.547C249.236 441.998 246.552 444.721 246.552 448.081Z" fill="#FF692D"/>
<path d="M330.203 448.081V478.633C330.203 481.993 332.887 484.716 336.198 484.716H396.65V441.998H336.198C332.887 441.998 330.203 444.721 330.203 448.081Z" fill="white"/>
<path d="M338.796 448.951H389.461" stroke="#F5F5F5" stroke-width="0.8" stroke-miterlimit="10" stroke-linecap="round" stroke-linejoin="round"/>
<path d="M338.796 454.749H389.461" stroke="#F5F5F5" stroke-width="0.8" stroke-miterlimit="10" stroke-linecap="round" stroke-linejoin="round"/>
<path d="M338.796 460.547H389.461" stroke="#F5F5F5" stroke-width="0.8" stroke-miterlimit="10" stroke-linecap="round" stroke-linejoin="round"/>
<path d="M315.665 447.854V479.796" stroke="#1D1141" stroke-width="0.8" stroke-miterlimit="10" stroke-linecap="round" stroke-linejoin="round"/>
<path d="M308.699 447.854V479.796" stroke="#1D1141" stroke-width="0.8" stroke-miterlimit="10" stroke-linecap="round" stroke-linejoin="round"/>
<path d="M224.485 239.801C224.485 243.493 221.535 246.486 217.896 246.486H53.4649V233.115H217.896C221.535 233.115 224.485 236.109 224.485 239.801Z" fill="#FF692D"/>
<path d="M137.223 239.801C137.223 243.493 134.273 246.486 130.634 246.486H53.4649V233.115H130.634C134.273 233.115 137.223 236.109 137.223 239.801Z" fill="#F5F5F5"/>
<path d="M230.754 444.588V454.803C230.754 458.495 227.804 461.489 224.166 461.489H55.8227V437.902H224.166C227.804 437.902 230.754 440.896 230.754 444.588Z" fill="#F2E9F8"/>
<path d="M141.495 444.588V454.803C141.495 458.495 138.545 461.489 134.907 461.489H55.8227V437.902H134.908C138.546 437.902 141.495 440.896 141.495 444.588Z" fill="#F5F5F5"/>
<path d="M230.388 200.892V226.429C230.388 230.121 227.438 233.115 223.799 233.115H59.3677V194.206H223.799C227.439 194.206 230.388 197.2 230.388 200.892Z" fill="#FFCD01"/>
<path d="M143.125 200.892V226.429C143.125 230.121 140.175 233.115 136.537 233.115H59.3677V194.206H136.537C140.175 194.206 143.125 197.2 143.125 200.892Z" fill="white"/>
<path d="M66.8862 201.267H129.647" stroke="#F5F5F5" stroke-width="0.8" stroke-miterlimit="10" stroke-linecap="round" stroke-linejoin="round"/>
<path d="M66.8862 207.065H129.647" stroke="#F5F5F5" stroke-width="0.8" stroke-miterlimit="10" stroke-linecap="round" stroke-linejoin="round"/>
<path d="M66.8862 212.863H129.647" stroke="#F5F5F5" stroke-width="0.8" stroke-miterlimit="10" stroke-linecap="round" stroke-linejoin="round"/>
<path d="M228.821 253.172V268.178C228.821 271.87 225.871 274.864 222.232 274.864H66.5941V246.485H222.231C225.871 246.487 228.821 249.48 228.821 253.172Z" fill="#FFCD01"/>
<path d="M146.046 253.172V268.178C146.046 271.87 143.096 274.864 139.457 274.864H66.5941V246.485H139.456C143.096 246.487 146.046 249.48 146.046 253.172Z" fill="#F5F5F5"/>
<path d="M73.9071 251.866H136.668" stroke="white" stroke-width="0.8" stroke-miterlimit="10" stroke-linecap="round" stroke-linejoin="round"/>
<path d="M73.9071 257.664H136.668" stroke="white" stroke-width="0.8" stroke-miterlimit="10" stroke-linecap="round" stroke-linejoin="round"/>
<path d="M73.9071 263.462H136.668" stroke="white" stroke-width="0.8" stroke-miterlimit="10" stroke-linecap="round" stroke-linejoin="round"/>
<path d="M64.1754 468.174V488.208C64.1754 491.9 67.1255 494.894 70.7637 494.894H244.535V461.488H70.7637C67.1255 461.488 64.1754 464.482 64.1754 468.174Z" fill="#FFCD01"/>
<path d="M156.203 468.174V488.208C156.203 491.9 159.153 494.894 162.792 494.894H244.535V461.488H162.792C159.153 461.488 156.203 464.482 156.203 468.174Z" fill="#F5F5F5"/>
<path d="M166.772 468.314H229.533" stroke="white" stroke-width="0.8" stroke-miterlimit="10" stroke-linecap="round" stroke-linejoin="round"/>
<path d="M166.772 474.112H229.533" stroke="white" stroke-width="0.8" stroke-miterlimit="10" stroke-linecap="round" stroke-linejoin="round"/>
<path d="M55.0318 517.793V530.418C55.0318 534.11 57.9819 537.104 61.6201 537.104H217.257V511.105H61.6201C57.9819 511.105 55.0318 514.099 55.0318 517.793Z" fill="#F2E9F8"/>
<path d="M137.808 517.793V530.418C137.808 534.11 140.758 537.104 144.396 537.104H217.258V511.105H144.396C140.757 511.105 137.808 514.099 137.808 517.793Z" fill="white"/>
<path d="M154.355 518.307H217.116" stroke="#F5F5F5" stroke-width="0.8" stroke-miterlimit="10" stroke-linecap="round" stroke-linejoin="round"/>
<path d="M154.355 524.105H217.116" stroke="#F5F5F5" stroke-width="0.8" stroke-miterlimit="10" stroke-linecap="round" stroke-linejoin="round"/>
<path d="M154.355 529.903H217.116" stroke="#F5F5F5" stroke-width="0.8" stroke-miterlimit="10" stroke-linecap="round" stroke-linejoin="round"/>
<path d="M44.5903 167.837V187.521C44.5903 191.213 47.5404 194.206 51.1786 194.206H200.402V161.151H51.1786C47.539 161.151 44.5903 164.145 44.5903 167.837Z" fill="#1D1141"/>
<path d="M124.092 167.837V187.521C124.092 191.213 127.042 194.206 130.68 194.206H200.402V161.151H130.68C127.042 161.151 124.092 164.145 124.092 167.837Z" fill="#F5F5F5"/>
<path d="M96.2732 172.466H55.5415V181.793H96.2732V172.466Z" stroke="white" stroke-width="0.8" stroke-miterlimit="10" stroke-linecap="round" stroke-linejoin="round"/>
<path d="M55.5415 281.551V285.827C55.5415 289.519 58.4916 292.513 62.1298 292.513H217.767V274.865H62.1298C58.4916 274.864 55.5415 277.857 55.5415 281.551Z" fill="#F2E9F8"/>
<path d="M138.316 281.551V285.827C138.316 289.519 141.266 292.513 144.905 292.513H217.767V274.865H144.905C141.266 274.864 138.316 277.857 138.316 281.551Z" fill="white"/>
<path d="M129.888 282.102H75.5782V285.68H129.888V282.102Z" stroke="#1D1141" stroke-width="0.8" stroke-miterlimit="10" stroke-linecap="round" stroke-linejoin="round"/>
<path d="M65.0961 374.627V431.217C65.0961 434.909 68.0462 437.902 71.6844 437.902H240.027V367.941H71.6844C68.0462 367.943 65.0961 370.935 65.0961 374.627Z" fill="#FF692D"/>
<path d="M154.355 374.627V431.217C154.355 434.909 157.305 437.902 160.943 437.902H240.029V367.941H160.943C157.305 367.943 154.355 370.935 154.355 374.627Z" fill="#F5F5F5"/>
<path d="M129.15 390.171H84.5527V413.699H129.15V390.171Z" stroke="#1D1141" stroke-width="0.8" stroke-miterlimit="10" stroke-linecap="round" stroke-linejoin="round"/>
<path d="M44.6539 344.006V361.257C44.6539 364.949 47.6039 367.943 51.2422 367.943H225.013V337.32H51.2422C47.6026 337.32 44.6539 340.313 44.6539 344.006Z" fill="#F2E9F8"/>
<path d="M136.682 344.006V361.257C136.682 364.949 139.632 367.943 143.27 367.943H225.013V337.32H143.27C139.632 337.32 136.682 340.313 136.682 344.006Z" fill="white"/>
<path d="M57.3911 343.281V362.083" stroke="#1D1141" stroke-width="0.8" stroke-miterlimit="10" stroke-linecap="round" stroke-linejoin="round"/>
<path d="M65.0961 343.281V362.083" stroke="#1D1141" stroke-width="0.8" stroke-miterlimit="10" stroke-linecap="round" stroke-linejoin="round"/>
<path d="M59.3677 330.519V330.634C59.3677 334.326 62.3178 337.32 65.956 337.32H230.388V323.833H65.956C62.3178 323.833 59.3677 326.827 59.3677 330.519Z" fill="#FFCD01"/>
<path d="M146.631 330.519V330.634C146.631 334.326 149.581 337.32 153.219 337.32H230.389V323.833H153.219C149.58 323.833 146.631 326.827 146.631 330.519Z" fill="white"/>
<path d="M126.52 328.101V333.835" stroke="#1D1141" stroke-width="0.8" stroke-miterlimit="10" stroke-linecap="round" stroke-linejoin="round"/>
<path d="M117.379 328.101V333.835" stroke="#1D1141" stroke-width="0.8" stroke-miterlimit="10" stroke-linecap="round" stroke-linejoin="round"/>
<path d="M45.9924 299.197V317.147C45.9924 320.839 48.9424 323.833 52.5806 323.833H223.674V292.512H52.5806C48.9424 292.512 45.9924 295.505 45.9924 299.197Z" fill="#FF692D"/>
<path d="M136.655 299.197V317.147C136.655 320.839 139.605 323.833 143.243 323.833H223.675V292.512H143.243C139.603 292.512 136.655 295.505 136.655 299.197Z" fill="white"/>
<path d="M74.4182 298.078V318.15" stroke="#1D1141" stroke-width="0.8" stroke-miterlimit="10" stroke-linecap="round" stroke-linejoin="round"/>
<path d="M62.1974 298.078V318.15" stroke="#1D1141" stroke-width="0.8" stroke-miterlimit="10" stroke-linecap="round" stroke-linejoin="round"/>
<path d="M53.1079 501.581V504.421C53.1079 508.113 56.058 511.107 59.6962 511.107H233.467V494.895H59.6962C56.058 494.895 53.1079 497.889 53.1079 501.581Z" fill="#1D1141"/>
<path d="M145.136 501.581V504.421C145.136 508.113 148.086 511.107 151.724 511.107H233.467V494.895H151.724C148.086 494.895 145.136 497.889 145.136 501.581Z" fill="white"/>
<path d="M63.1952 499.847V506.382" stroke="white" stroke-width="0.8" stroke-miterlimit="10" stroke-linecap="round" stroke-linejoin="round"/>
<path d="M68.3301 499.847V506.382" stroke="white" stroke-width="0.8" stroke-miterlimit="10" stroke-linecap="round" stroke-linejoin="round"/>
<path d="M166.357 487.328L154.776 537.583H94.6941C92.2564 537.583 91.0261 534.598 92.7378 532.837C97.3318 528.11 100.562 522.196 102.079 515.738L109.067 485.973L166.357 487.328Z" fill="#FF692D"/>
<path d="M132.077 537.167C135.666 535.122 139.257 533.077 142.847 531.032C142.636 533.163 142.426 535.292 142.216 537.423" stroke="#1D1141" stroke-width="0.8" stroke-miterlimit="10" stroke-linecap="round" stroke-linejoin="round"/>
<path d="M198.153 537.582L201.126 493.127L257.916 490.021L256.157 510.9C255.575 517.808 258.175 524.601 263.201 529.298L267.453 533.272C269.093 534.804 268.023 537.581 265.795 537.581H198.153V537.582Z" fill="#FF692D"/>
<path d="M209.959 537.416C210.181 535.505 210.402 533.593 210.624 531.681C216.6 533.506 222.165 536.262 228.141 538.087" stroke="#1D1141" stroke-width="0.8" stroke-miterlimit="10" stroke-linecap="round" stroke-linejoin="round"/>
<path d="M105.287 493.127L167.022 496.291L193.804 369.975L211.232 291.167L198.91 497.894L261.315 495.109C261.315 495.109 274.956 339.603 275.124 265.227L154.35 226.269L105.287 493.127Z" fill="#1D1141"/>
<path d="M211.139 295.59C212.144 291.094 213.15 286.598 214.154 282.102" stroke="white" stroke-width="0.8" stroke-miterlimit="10" stroke-linecap="round" stroke-linejoin="round"/>
<path d="M201.645 479.91C221.923 479.872 242.201 479.835 262.479 479.796" stroke="white" stroke-width="0.8" stroke-miterlimit="10" stroke-linecap="round" stroke-linejoin="round"/>
<path d="M109.235 476.364C129.73 477.352 150.225 478.338 170.72 479.326" stroke="white" stroke-width="0.8" stroke-miterlimit="10" stroke-linecap="round" stroke-linejoin="round"/>
<path d="M161.29 478.442C171.117 440.275 180.945 402.107 190.773 363.939C194.139 350.865 197.52 337.745 202.585 325.248" stroke="white" stroke-width="0.8" stroke-miterlimit="10" stroke-linecap="round" stroke-linejoin="round"/>
<path d="M212.595 288.135C212.956 317.368 213.317 346.603 213.68 375.836C214.103 410.022 212.667 445.219 211.871 479.4" stroke="white" stroke-width="0.8" stroke-miterlimit="10" stroke-linecap="round" stroke-linejoin="round"/>
<path d="M129.661 368.959C131.813 371.543 135.055 373.159 138.387 373.307C141.718 373.455 145.087 372.136 147.455 369.754" stroke="white" stroke-width="0.8" stroke-miterlimit="10" stroke-linecap="round" stroke-linejoin="round"/>
<path d="M258.488 377.86C261.091 379.867 264.668 380.505 267.789 379.518" stroke="white" stroke-width="0.8" stroke-miterlimit="10" stroke-linecap="round" stroke-linejoin="round"/>
<path d="M352.456 129.548L290.984 128.532C280.513 107.064 272.556 102.775 259.224 97.3295C245.892 91.884 223.125 83.0044 223.125 83.0044C223.125 83.0044 197.93 88.1343 181.974 92.4356C166.017 96.7368 153.828 110.793 145.873 134.979C137.919 159.164 136.145 179.423 136.725 192.604C137.504 210.348 147.694 216.364 152.333 218.89L139.414 274.603L154.197 274.806L160.595 241.914L165.973 274.968L282.383 276.565L273.472 163.448C273.472 163.448 290.987 183.351 307.192 193.404C323.397 203.456 341.51 201.58 347.537 177.851C353.56 154.121 352.397 141.372 352.456 129.548Z" fill="#F2E9F8"/>
<path d="M203.158 88.5075C204.951 97.6684 212.897 105.239 222.02 106.477C231.142 107.714 240.77 102.527 244.87 94.1657" stroke="#1D1141" stroke-width="0.8" stroke-miterlimit="10" stroke-linecap="round" stroke-linejoin="round"/>
<path d="M152.331 218.889C161.59 225.214 221.52 223.189 221.52 223.189" stroke="#1D1141" stroke-width="0.8" stroke-miterlimit="10" stroke-linecap="round" stroke-linejoin="round"/>
<path d="M158.548 174.005C163.883 173.22 169.441 174.07 174.312 176.413C171.553 172.581 167.476 169.746 162.958 168.518" stroke="#1D1141" stroke-width="0.8" stroke-miterlimit="10" stroke-linecap="round" stroke-linejoin="round"/>
<path d="M166.22 101.175C169.715 99.9267 173.702 101.788 176.07 104.681C178.437 107.573 179.528 111.296 180.512 114.921C182.88 123.639 184.956 132.439 186.74 141.299" stroke="#1D1141" stroke-width="0.8" stroke-miterlimit="10" stroke-linecap="round" stroke-linejoin="round"/>
<path d="M266.083 102.005C265.277 114.399 264.47 126.792 263.664 139.185" stroke="#1D1141" stroke-width="0.8" stroke-miterlimit="10" stroke-linecap="round" stroke-linejoin="round"/>
<path d="M142.779 258.741H156.943" stroke="#1D1141" stroke-width="0.8" stroke-miterlimit="10" stroke-linecap="round" stroke-linejoin="round"/>
<path d="M163.331 258.741H278.753" stroke="#1D1141" stroke-width="0.8" stroke-miterlimit="10" stroke-linecap="round" stroke-linejoin="round"/>
<path d="M209.081 223.691L207.42 188.292" stroke="#1D1141" stroke-width="0.8" stroke-miterlimit="10" stroke-linecap="round" stroke-linejoin="round"/>
<path d="M351.246 143.234L329.028 144.447" stroke="#1D1141" stroke-width="0.8" stroke-miterlimit="10" stroke-linecap="round" stroke-linejoin="round"/>
<path d="M347.533 130.55V143.436" stroke="#1D1141" stroke-width="0.8" stroke-miterlimit="10" stroke-linecap="round" stroke-linejoin="round"/>
<path d="M340.516 130.55L340.036 143.846" stroke="#1D1141" stroke-width="0.8" stroke-miterlimit="10" stroke-linecap="round" stroke-linejoin="round"/>
<path d="M209.081 214.841L219.599 215.094" stroke="#1D1141" stroke-width="0.8" stroke-miterlimit="10" stroke-linecap="round" stroke-linejoin="round"/>
<path d="M208.074 203.596H219.085" stroke="#1D1141" stroke-width="0.8" stroke-miterlimit="10" stroke-linecap="round" stroke-linejoin="round"/>
<path d="M207.862 197.702H219.085" stroke="#1D1141" stroke-width="0.8" stroke-miterlimit="10" stroke-linecap="round" stroke-linejoin="round"/>
<path d="M244.909 58.6912C245.917 59.4486 246.923 60.2046 247.928 60.9605C248.364 60.5284 248.805 60.0934 249.236 59.6626C247.221 51.9094 240.889 45.472 233.252 43.4126C225.807 41.4054 217.262 43.7117 212.157 49.5661C207.052 55.4204 205.915 64.6581 209.875 71.363L240.614 68.2198C242.479 66.3635 244.366 64.4934 246.249 62.6275C245.803 61.3145 245.356 60.0029 244.909 58.6912Z" fill="#FF692D"/>
<path d="M238.99 93.0434C236.746 91.8621 234.457 90.9044 232.214 89.7231C232.391 88.6708 232.84 87.4388 233.017 86.3864C235.979 86.3123 238.89 84.9582 240.88 82.73C242.871 80.5019 243.995 77.1707 243.805 74.1688C243.652 71.7637 243.348 69.3695 243.244 66.9616C243.18 65.495 242.549 64.0791 241.496 63.0734C235.428 63.308 229.206 63.5467 223.138 63.7814C222.188 65.4703 221.141 67.2854 220.189 68.9757C219.393 68.0551 218.614 66.9905 217.817 66.0699C215.119 65.2302 211.964 66.2153 210.198 68.4475C208.432 70.6798 208.166 74.0192 209.556 76.5108C210.946 79.0023 213.905 80.4882 216.7 80.0986C216.334 82.2924 215.543 84.2461 215.176 86.4399C212.898 87.2206 210.611 88.0561 208.332 88.8368C209.524 95.7819 214.854 101.81 221.733 102.794C228.612 103.778 235.955 99.3848 238.99 93.0434Z" fill="#FFC9B1"/>
<path d="M227.466 75.2842C228.063 75.2842 228.547 74.7928 228.547 74.1866C228.547 73.5804 228.063 73.089 227.466 73.089C226.869 73.089 226.384 73.5804 226.384 74.1866C226.384 74.7928 226.869 75.2842 227.466 75.2842Z" fill="#1D1141"/>
<path d="M240.499 74.5022C241.097 74.5022 241.581 74.0108 241.581 73.4046C241.581 72.7984 241.097 72.307 240.499 72.307C239.902 72.307 239.418 72.7984 239.418 73.4046C239.418 74.0108 239.902 74.5022 240.499 74.5022Z" fill="#1D1141"/>
<path d="M214.027 70.2956C215.133 70.9171 216.239 71.54 217.345 72.1629" stroke="#1D1141" stroke-width="0.8" stroke-miterlimit="10" stroke-linecap="round" stroke-linejoin="round"/>
<path d="M215.525 80.3441C216.162 80.3167 216.799 80.2879 217.437 80.2604" stroke="#1D1141" stroke-width="0.8" stroke-miterlimit="10" stroke-linecap="round" stroke-linejoin="round"/>
<path d="M224.896 67.671C225.38 66.4897 226.59 65.6555 227.85 65.6336C229.11 65.613 230.347 66.406 230.869 67.5708" stroke="#1D1141" stroke-width="0.8" stroke-miterlimit="10" stroke-linecap="round" stroke-linejoin="round"/>
<path d="M237.876 67.2306C239.706 66.9562 241.535 66.6804 243.364 66.406" stroke="#1D1141" stroke-width="0.8" stroke-miterlimit="10" stroke-linecap="round" stroke-linejoin="round"/>
<path d="M234.467 72.9093C234.738 74.3156 235.011 75.7219 235.285 77.1282C234.619 77.0527 233.888 77.157 233.223 77.0801" stroke="#1D1141" stroke-width="0.8" stroke-miterlimit="10" stroke-linecap="round" stroke-linejoin="round"/>
<path d="M229.925 77.8883C229.795 78.5166 230.032 79.2081 230.519 79.6184C231.005 80.0286 231.721 80.137 232.305 79.89" stroke="#1D1141" stroke-width="0.8" stroke-miterlimit="10" stroke-linecap="round" stroke-linejoin="round"/>
<path d="M224.308 84.0705C227.022 86.3988 230.807 87.3825 234.291 86.6677" stroke="#1D1141" stroke-width="0.8" stroke-miterlimit="10" stroke-linecap="round" stroke-linejoin="round"/>
<path d="M259.562 213.295C249.846 219.901 221.52 220.899 221.52 220.899L219.085 188.29L254.148 195.131L259.562 213.295Z" fill="#FFC9B1"/>
<path d="M289.319 105.925C278.613 113.721 271.261 125.387 268.78 138.52L301.372 133.225L319.149 84.2049L289.319 105.925Z" fill="white"/>
<path d="M350.655 129.946C350.655 129.946 350.567 127.811 350.356 124.273C349.86 115.935 347.802 107.748 344.733 99.998C338.942 98.7536 333.026 97.2883 327.525 95.0739C323.762 97.3542 320.05 99.8238 316.287 102.104C313.172 102.026 310.056 101.948 306.941 101.868C306.611 102.533 307.073 103.416 307.591 103.945C308.109 104.475 308.813 104.76 309.497 105.032C312.282 106.139 315.067 107.248 317.851 108.356C314.214 108.33 310.577 108.305 306.941 108.279C306.767 109.075 307.062 110.206 307.681 110.726C308.301 111.246 309.081 111.517 309.842 111.778C313.139 112.907 316.437 114.038 319.735 115.168C319.561 122.672 319.48 122.138 319.307 129.641L350.655 129.946Z" fill="#FFC9B1"/>
<path d="M315.416 101.985C322.314 101.975 329.212 101.965 336.11 101.956" stroke="#1D1141" stroke-width="0.8" stroke-miterlimit="10" stroke-linecap="round" stroke-linejoin="round"/>
<path d="M316.92 108.233C320.411 108.559 323.903 108.886 327.394 109.212" stroke="#1D1141" stroke-width="0.8" stroke-miterlimit="10" stroke-linecap="round" stroke-linejoin="round"/>
<path d="M327.085 100.544C327.494 100.89 327.902 101.236 328.31 101.581" stroke="#1D1141" stroke-width="0.8" stroke-miterlimit="10" stroke-linecap="round" stroke-linejoin="round"/>
<path d="M187.95 125.34L191.839 113.398L251.11 125.75C256.802 126.908 262.018 129.777 266.082 133.984L268.779 136.776C272.306 130.042 278.275 124.964 285.425 122.618L333.177 106.728L342.261 117.015L290.899 154.376L187.95 125.34Z" fill="white"/>
<path d="M197.257 118.258L246.668 127.527" stroke="#1D1141" stroke-width="0.8" stroke-miterlimit="10" stroke-linecap="round" stroke-linejoin="round"/>
<path d="M196.763 122.832L245.203 131.603" stroke="#1D1141" stroke-width="0.8" stroke-miterlimit="10" stroke-linecap="round" stroke-linejoin="round"/>
<path d="M286.744 127.527L330.624 113.398" stroke="#1D1141" stroke-width="0.8" stroke-miterlimit="10" stroke-linecap="round" stroke-linejoin="round"/>
<path d="M288.74 130.55L334.163 116.634" stroke="#1D1141" stroke-width="0.8" stroke-miterlimit="10" stroke-linecap="round" stroke-linejoin="round"/>
<path d="M308.199 115.038C308.199 115.038 290.212 120.385 283.617 122.831C277.022 125.279 271.509 130.053 268.78 136.775" stroke="#1D1141" stroke-width="0.8" stroke-miterlimit="10" stroke-linecap="round" stroke-linejoin="round"/>
<path d="M263.334 141.246C266.408 138.347 271.61 138.17 274.868 140.851" stroke="#1D1141" stroke-width="0.8" stroke-miterlimit="10" stroke-linecap="round" stroke-linejoin="round"/>
<path d="M321.261 174.044L255.898 197.944C251.545 199.535 246.837 199.855 242.314 198.864L166.948 182.369L187.95 125.339L262.18 141.585C266.632 142.559 271.263 142.265 275.562 140.737L342.263 117.012L321.261 174.044Z" fill="#546CFF"/>
<path d="M260.522 144.348L239.52 201.378" stroke="#1D1141" stroke-width="0.8" stroke-miterlimit="10" stroke-linecap="round" stroke-linejoin="round"/>
<path d="M278.081 143.308L257.079 200.338" stroke="#1D1141" stroke-width="0.8" stroke-miterlimit="10" stroke-linecap="round" stroke-linejoin="round"/>
<path d="M255.052 161.02C260.394 163.468 266.856 163.231 272.009 160.396" stroke="#1D1141" stroke-width="0.8" stroke-miterlimit="10" stroke-linecap="round" stroke-linejoin="round"/>
<path d="M252.618 166.963C257.703 169.473 263.874 169.605 269.059 167.312" stroke="#1D1141" stroke-width="0.8" stroke-miterlimit="10" stroke-linecap="round" stroke-linejoin="round"/>
<path d="M310.348 150.829L290.062 158.222L293.964 149.67L314.251 142.278L310.348 150.829Z" stroke="#1D1141" stroke-width="0.8" stroke-miterlimit="10" stroke-linecap="round" stroke-linejoin="round"/>
<path d="M247.667 216.758C242.315 217.901 236.37 216.534 232.303 213.228C228.237 209.921 226.338 204.959 227.118 200.1C232.66 194.894 238.202 189.686 243.745 184.479C244.367 183.894 245.008 183.298 245.826 182.957C246.644 182.617 247.69 182.588 248.387 183.099C245.717 189.439 242.844 195.798 240.173 202.138C240.733 203.123 241.267 204.147 241.827 205.133C247.417 198.744 252.909 192.419 258.5 186.029C259.161 185.273 259.753 184.125 260.724 183.713C261.694 183.302 262.869 183.291 263.848 183.686C262.074 187.431 260.606 191.387 259.652 195.362C261.152 193.042 262.807 190.683 264.308 188.363C265.004 187.286 266.082 186.275 267.462 186.441C266.835 189.057 266.408 191.671 265.78 194.287C266.412 193.511 267.289 192.52 267.919 191.744C268.414 191.134 269.382 190.668 270.121 191.029C269.074 194.773 268.11 198.538 267.062 202.282C266.245 205.203 264.423 207.814 263.086 210.578C260.96 214.976 252.89 215.644 247.667 216.758Z" fill="#FFC9B1"/>
<path d="M259.945 194.206L254.932 206.354" stroke="#1D1141" stroke-width="0.8" stroke-miterlimit="10" stroke-linecap="round" stroke-linejoin="round"/>
<path d="M265.995 193.363L263.441 205.991" stroke="#1D1141" stroke-width="0.8" stroke-miterlimit="10" stroke-linecap="round" stroke-linejoin="round"/>
</svg>
