<svg width="534" height="208" viewBox="0 0 534 208" fill="none" xmlns="http://www.w3.org/2000/svg">
<g clip-path="url(#clip0_39_16348)" filter="url(#filter0_d_39_16348)">
<path d="M534 -42H-216V458H534V-42Z" fill="white"/>
<mask id="mask0_39_16348" style="mask-type:luminance" maskUnits="userSpaceOnUse" x="18" y="-179" width="854" height="900">
<path d="M474.376 -178.967L18.6755 416.758L415.826 720.558L871.526 124.833L474.376 -178.967Z" fill="white"/>
</mask>
<g mask="url(#mask0_39_16348)">
<path d="M511.002 61.1023C578.232 -26.7858 567.638 -147.828 487.339 -209.252C407.041 -270.676 287.445 -249.223 220.215 -161.335C152.985 -73.447 163.579 47.5948 243.878 109.019C324.176 170.444 443.772 148.991 511.002 61.1023Z" fill="#EDEDED"/>
</g>
<path d="M42.658 1.306L35.297 14.055H50.018L42.658 1.306Z" fill="#FF692D"/>
<path d="M279.815 62.482L287.176 49.733H272.455L279.815 62.482Z" fill="#546CFF"/>
<path d="M192.907 152.126L189.278 148.401C190.672 147.044 191.418 144.896 191.274 142.657C191.129 140.418 190.115 138.384 188.559 137.216L191.68 133.058C194.476 135.156 196.219 138.534 196.462 142.324C196.707 146.114 195.411 149.686 192.907 152.126Z" fill="#546CFF"/>
<path d="M212.008 5.62901C211.353 2.19501 212.336 -1.47599 214.706 -4.44299C217.076 -7.41099 220.439 -9.18099 223.933 -9.29999L224.111 -4.10299C222.167 -4.03699 220.17 -2.95099 218.769 -1.19799C217.37 0.55501 216.751 2.74201 217.116 4.65401L212.008 5.62901Z" fill="#FF692D"/>
<mask id="mask1_39_16348" style="mask-type:luminance" maskUnits="userSpaceOnUse" x="132" y="-42" width="402" height="500">
<path d="M534 -42H132.882V458H534V-42Z" fill="white"/>
</mask>
<g mask="url(#mask1_39_16348)">
<path d="M457.204 203.997H378.738V296.607H457.204V203.997Z" fill="#F2E9F8"/>
<path d="M398.471 206.202V295" stroke="#1D1141" stroke-width="1.5" stroke-miterlimit="10" stroke-linecap="round" stroke-linejoin="round"/>
<path d="M512.33 203.165H448.947V296.607H512.33V203.165Z" fill="#FF692D"/>
<path d="M464.814 206.202V292.66" stroke="#1D1141" stroke-width="1.5" stroke-miterlimit="10" stroke-linecap="round" stroke-linejoin="round"/>
</g>
<mask id="mask2_39_16348" style="mask-type:luminance" maskUnits="userSpaceOnUse" x="132" y="-42" width="402" height="500">
<path d="M534 -42H132.882V458H534V-42Z" fill="white"/>
</mask>
<g mask="url(#mask2_39_16348)">
<path d="M519.063 114.424H460.925V198.259H519.063V114.424Z" fill="#F2E9F8"/>
<path d="M474.699 117.465V197.706" stroke="#1D1141" stroke-width="1.5" stroke-miterlimit="10" stroke-linecap="round" stroke-linejoin="round"/>
<path d="M460.925 159.678H474.699" stroke="#1D1141" stroke-width="1.5" stroke-miterlimit="10" stroke-linecap="round" stroke-linejoin="round"/>
<path d="M460.925 170.564H474.699" stroke="#1D1141" stroke-width="1.5" stroke-miterlimit="10" stroke-linecap="round" stroke-linejoin="round"/>
<path d="M499.383 198.259H557.203L549.375 131.332H491.555L499.383 198.259Z" fill="#FF692D"/>
<path d="M505.555 131.332L513.383 198.259" stroke="#1D1141" stroke-width="1.5" stroke-miterlimit="10" stroke-linecap="round" stroke-linejoin="round"/>
<path d="M492.92 143.005H506.92" stroke="#1D1141" stroke-width="1.5" stroke-miterlimit="10" stroke-linecap="round" stroke-linejoin="round"/>
<path d="M400.537 125.235H342.399V198.258H400.537V125.235Z" fill="#FFCD01"/>
<path d="M357.513 124.059V187.588" stroke="#1D1141" stroke-width="1.5" stroke-miterlimit="10" stroke-linecap="round" stroke-linejoin="round"/>
<path d="M342.399 161.747H357.513" stroke="#1D1141" stroke-width="1.5" stroke-miterlimit="10" stroke-linecap="round" stroke-linejoin="round"/>
<path d="M418.023 109.92H359.885V198.259H418.023V109.92Z" fill="#FF692D"/>
<path d="M372.14 114.985V196.294" stroke="#1D1141" stroke-width="1.5" stroke-miterlimit="10" stroke-linecap="round" stroke-linejoin="round"/>
<path d="M359.885 131.332H372.14" stroke="#1D1141" stroke-width="1.5" stroke-miterlimit="10" stroke-linecap="round" stroke-linejoin="round"/>
<path d="M390.06 198.259H448.198L435.18 109.92H377.042L390.06 198.259Z" fill="#A77456"/>
<path d="M400.06 198.259L387.042 109.92" stroke="#1D1141" stroke-width="1.5" stroke-miterlimit="10" stroke-linecap="round" stroke-linejoin="round"/>
<path d="M572.757 195.982H318.473V211.982H572.757V195.982Z" fill="#546CFF"/>
</g>
<mask id="mask3_39_16348" style="mask-type:luminance" maskUnits="userSpaceOnUse" x="132" y="-42" width="402" height="500">
<path d="M534 -42H132.882V458H534V-42Z" fill="white"/>
</mask>
<g mask="url(#mask3_39_16348)">
<path d="M392.525 35.35H322.927V102.919H392.525V35.35Z" fill="#546CFF"/>
<path d="M336.177 35.35V102.35" stroke="#1D1141" stroke-width="1.5" stroke-miterlimit="10" stroke-linecap="round" stroke-linejoin="round"/>
<path d="M336.177 85.699H322.927" stroke="#1D1141" stroke-width="1.5" stroke-miterlimit="10" stroke-linecap="round" stroke-linejoin="round"/>
<path d="M414.334 20.308H344.736V102.918H414.334V20.308Z" fill="#F2E9F8"/>
<path d="M364.639 22.882V100.282" stroke="#1D1141" stroke-width="1.5" stroke-miterlimit="10" stroke-linecap="round" stroke-linejoin="round"/>
<path d="M344.736 44.059H364.639" stroke="#1D1141" stroke-width="1.5" stroke-miterlimit="10" stroke-linecap="round" stroke-linejoin="round"/>
<path d="M344.736 53.983H364.639" stroke="#1D1141" stroke-width="1.5" stroke-miterlimit="10" stroke-linecap="round" stroke-linejoin="round"/>
<path d="M427.172 35.35H369.073V102.919H427.172V35.35Z" fill="#FFCD01"/>
<path d="M388.954 37V102.35" stroke="#1D1141" stroke-width="1.5" stroke-miterlimit="10" stroke-linecap="round" stroke-linejoin="round"/>
<path d="M380.607 58.41H376.042V94.607H380.607V58.41Z" stroke="#1D1141" stroke-width="1.5" stroke-miterlimit="10" stroke-linecap="round" stroke-linejoin="round"/>
<path d="M456.221 30.647H398.122V102.918H456.221V30.647Z" fill="#A77456"/>
<path d="M405.599 31.824V102.35" stroke="#1D1141" stroke-width="1.5" stroke-miterlimit="10" stroke-linecap="round" stroke-linejoin="round"/>
<path d="M541.882 20.308H475.65V104.507H541.882V20.308Z" fill="#F2E9F8"/>
<path d="M492.647 21.471V104.735" stroke="#1D1141" stroke-width="1.5" stroke-miterlimit="10" stroke-linecap="round" stroke-linejoin="round"/>
<path d="M485.823 35.35H480.882V81.471H485.823V35.35Z" stroke="#1D1141" stroke-width="1.5" stroke-miterlimit="10" stroke-linecap="round" stroke-linejoin="round"/>
<path d="M553.187 37H501.894V104.507H553.187V37Z" fill="#FF692D"/>
<path d="M519.063 37V102.643" stroke="#1D1141" stroke-width="1.5" stroke-miterlimit="10" stroke-linecap="round" stroke-linejoin="round"/>
<path d="M501.894 50.647H519.063" stroke="#1D1141" stroke-width="1.5" stroke-miterlimit="10" stroke-linecap="round" stroke-linejoin="round"/>
<path d="M501.894 55.824H519.063" stroke="#1D1141" stroke-width="1.5" stroke-miterlimit="10" stroke-linecap="round" stroke-linejoin="round"/>
<path d="M501.894 60.296H519.063" stroke="#1D1141" stroke-width="1.5" stroke-miterlimit="10" stroke-linecap="round" stroke-linejoin="round"/>
<path d="M581.007 101.299H297.735V117.299H581.007V101.299Z" fill="#546CFF"/>
</g>
<mask id="mask4_39_16348" style="mask-type:luminance" maskUnits="userSpaceOnUse" x="132" y="-42" width="402" height="500">
<path d="M534 -42H132.882V458H534V-42Z" fill="white"/>
</mask>
<g mask="url(#mask4_39_16348)">
<path d="M381.607 16.234H472.167L489.747 -81.941H399.187L381.607 16.234Z" fill="#F2E9F8"/>
<path d="M409.187 -81.941L391.607 16.234" stroke="#1D1141" stroke-width="1.5" stroke-miterlimit="10" stroke-linecap="round" stroke-linejoin="round"/>
<path d="M502.682 -63.42H412.122V16.235H502.682V-63.42Z" fill="#FFCD01"/>
<path d="M430.059 -62.294V9.23499" stroke="#1D1141" stroke-width="1.5" stroke-miterlimit="10" stroke-linecap="round" stroke-linejoin="round"/>
<path d="M528.348 -55.943H437.788V16.235H528.348V-55.943Z" fill="#546CFF"/>
<path d="M456.222 -55.943V9.23499" stroke="#1D1141" stroke-width="1.5" stroke-miterlimit="10" stroke-linecap="round" stroke-linejoin="round"/>
<path d="M557.102 -81.941H466.542V16.234H557.102V-81.941Z" fill="#FF692D"/>
<path d="M480.882 -81.941V11.334" stroke="#1D1141" stroke-width="1.5" stroke-miterlimit="10" stroke-linecap="round" stroke-linejoin="round"/>
<path d="M579.191 -77.041H488.631V11.335H579.191V-77.041Z" fill="#F2E9F8"/>
<path d="M511.822 -75.471V11.334" stroke="#1D1141" stroke-width="1.5" stroke-miterlimit="10" stroke-linecap="round" stroke-linejoin="round"/>
<path d="M584.347 6.61499H330.063V22.615H584.347V6.61499Z" fill="#546CFF"/>
</g>
<mask id="mask5_39_16348" style="mask-type:luminance" maskUnits="userSpaceOnUse" x="-216" y="-42" width="265" height="243">
<path d="M48.302 -42H-216V200.529H48.302V-42Z" fill="white"/>
</mask>
<g mask="url(#mask5_39_16348)">
<path d="M3.60301 -9.311C-4.26399 1.395 -10.63 13.237 -14.017 26.084C-12.981 14.35 -13.647 2.468 -15.988 -9.077C-21.76 1.008 -25.349 12.007 -26.308 23.588C-25.951 8.636 -28.205 -6.376 -32.938 -20.564C-38.721 -5.605 -41.442 11.471 -39.362 27.374C-42.657 15.693 -46.961 5.084 -52.571 -5.679C-53.478 12.682 -50.426 31.229 -43.684 48.332L-6.59198 48.622C0.649021 30.279 4.05501 10.405 3.60301 -9.311Z" fill="#1D1141"/>
<path d="M3.64302 31H-54.542V66.48H3.64302V31Z" fill="#FFCD01"/>
<path d="M-54.542 43.201H3.64302" stroke="#1D1141" stroke-width="1.5" stroke-miterlimit="10" stroke-linecap="round" stroke-linejoin="round"/>
<path d="M23.254 62.641H-231.031V78.641H23.254V62.641Z" fill="#546CFF"/>
</g>
<mask id="mask6_39_16348" style="mask-type:luminance" maskUnits="userSpaceOnUse" x="7" y="-23" width="563" height="481">
<path d="M569.484 -23H7.17401V458H569.484V-23Z" fill="white"/>
</mask>
<g mask="url(#mask6_39_16348)">
<path d="M384.835 259.947C388.711 245.063 385.539 229.548 376.133 217.379C366.727 205.211 352.512 198.232 337.133 198.232H170.901L140.414 315.308C138.912 316.458 137.939 318.265 137.939 320.303C137.939 321.194 138.127 322.041 138.461 322.809L38.336 707.315C37.46 710.679 39.477 714.116 42.841 714.992C46.207 715.872 49.642 713.851 50.518 710.487L125.505 422.52H329.493L255.332 707.315C254.456 710.679 256.473 714.116 259.837 714.992C260.369 715.131 260.902 715.196 261.427 715.196C264.223 715.196 266.776 713.318 267.514 710.486L343.465 418.816C343.753 418.179 343.939 417.488 344.001 416.759L384.835 259.947ZM180.631 210.821H337.133C348.585 210.821 359.169 216.017 366.173 225.078C373.176 234.139 375.539 245.692 372.653 256.775L357.749 314.009H153.761L180.631 210.821ZM128.783 409.931L150.483 326.597H354.471L332.771 409.931H128.783Z" fill="#1D1141"/>
</g>
<mask id="mask7_39_16348" style="mask-type:luminance" maskUnits="userSpaceOnUse" x="7" y="-23" width="563" height="481">
<path d="M569.484 -23H7.17401V458H569.484V-23Z" fill="white"/>
</mask>
<g mask="url(#mask7_39_16348)">
<path d="M278.123 158.756C278.981 158.092 279.864 157.431 280.667 156.762C279.128 155.535 277.589 154.309 276.05 153.083C275.169 151.05 274.159 149.063 272.979 147.066C270.987 143.698 267.391 141.328 263.51 140.827C257.496 150.045 249.105 157.257 239.568 162.751C237.265 172.307 235.043 181.349 232.741 190.905L258.658 196.929C261.207 191.001 263.715 185.237 266.264 179.309C270.682 178.733 275.075 176.755 277.746 173.188C280.416 169.622 279.831 165.134 278.707 160.823C278.524 160.122 278.328 159.435 278.123 158.756Z" fill="#FFC9B1"/>
<path d="M273.387 157.21C274.215 157.21 274.887 156.538 274.887 155.71C274.887 154.882 274.215 154.21 273.387 154.21C272.559 154.21 271.887 154.882 271.887 155.71C271.887 156.538 272.559 157.21 273.387 157.21Z" fill="#1D1141"/>
<path d="M268.507 151.494C268.575 150.403 269.176 149.357 270.086 148.75C270.996 148.144 272.193 147.99 273.226 148.347" stroke="#1D1141" stroke-width="1.5" stroke-miterlimit="10" stroke-linecap="round" stroke-linejoin="round"/>
<path d="M277.518 163.341C278.012 163.341 278.505 163.341 278.999 163.341" stroke="#1D1141" stroke-width="1.5" stroke-miterlimit="10" stroke-linecap="round" stroke-linejoin="round"/>
<path d="M258.367 170.5L259.665 198.617C259.665 198.617 233.895 190.808 233.895 191.212C233.895 191.616 247.903 168.879 247.903 168.879L258.367 170.5Z" fill="#FF692D"/>
<path d="M221.078 183.028C156.208 173.574 126.952 183.355 98.226 195.968C69.5 208.58 52.67 248.127 72.443 280.388C92.216 312.649 120.953 346.99 120.953 346.99L221.078 183.028Z" fill="#F2E9F8"/>
<path d="M70.589 231.334C76.308 230.805 81.671 227.314 84.47 222.299C87.269 217.284 87.424 210.887 84.872 205.742" stroke="#1D1141" stroke-width="1.5" stroke-miterlimit="10" stroke-linecap="round" stroke-linejoin="round"/>
<path d="M281.097 192.141L221.078 183.027C221.078 183.027 191.389 183.72 167.047 219.25C142.704 254.779 93.922 328.784 93.922 328.784L289.312 354.53L294.87 238.379L281.097 192.141Z" fill="#FFCD01"/>
<path d="M433.222 41.576C427.236 50.181 421.533 58.815 415.244 67.201C412.166 71.305 410.839 76.679 411.652 81.745L440.368 62.877C438.042 55.769 435.549 48.684 433.222 41.576Z" fill="#FFC9B1"/>
<path d="M517.235 87.258H436.669L426.884 -4.11099H507.451L517.235 87.258Z" fill="#1D1141"/>
<path d="M487.693 37H470.051L467.908 16.992H485.55L487.693 37Z" stroke="white" stroke-width="1.5" stroke-miterlimit="10" stroke-linecap="round" stroke-linejoin="round"/>
<path d="M439.778 -4.11099L449.563 87.258" stroke="white" stroke-width="1.5" stroke-miterlimit="10" stroke-linecap="round" stroke-linejoin="round"/>
<path d="M429.84 17.653H441.646" stroke="white" stroke-width="1.5" stroke-miterlimit="10" stroke-linecap="round" stroke-linejoin="round"/>
<path d="M443.141 27.293H430.398" stroke="white" stroke-width="1.5" stroke-miterlimit="10" stroke-linecap="round" stroke-linejoin="round"/>
<path d="M471.443 54.582C469.059 56.647 466.747 58.67 464.362 60.734C466.097 55.105 468.085 49.37 469.82 43.741C469.394 43.346 468.739 43.218 468.195 43.422C467.651 43.626 467.614 44.054 467.273 44.526C465.212 47.383 463.15 50.239 461.089 53.096C463.259 48.731 465.801 44.616 468.613 40.635C467.578 39.771 466.397 40.251 465.366 41.119C462.255 43.737 459.144 46.356 456.033 48.974C458.772 45.933 461.611 42.813 464.35 39.772C463.746 38.771 462.398 38.786 461.356 39.314C450.239 44.945 439.672 51.664 429.857 59.343C416.699 69.637 407.79 84.837 398.322 98.601L439.269 116.59C447.803 101.495 456.546 86.909 464.593 71.548C467.583 65.84 470.692 60.267 473.683 54.558C473.008 53.905 472.153 53.968 471.443 54.582Z" fill="#FFC9B1"/>
<path d="M428.27 60.15C430.011 58.792 431.753 57.434 433.494 56.076" stroke="#1D1141" stroke-width="1.5" stroke-miterlimit="10" stroke-linecap="round" stroke-linejoin="round"/>
<path d="M458.373 46.369C454.421 50.81 450.469 55.251 446.517 59.691" stroke="#1D1141" stroke-width="1.5" stroke-miterlimit="10" stroke-linecap="round" stroke-linejoin="round"/>
<path d="M453.415 65.441C456.844 59.832 460.273 54.223 463.703 48.615" stroke="#1D1141" stroke-width="1.5" stroke-miterlimit="10" stroke-linecap="round" stroke-linejoin="round"/>
<path d="M465.06 59.395C463.623 63.03 462.185 66.664 460.748 70.299" stroke="#1D1141" stroke-width="1.5" stroke-miterlimit="10" stroke-linecap="round" stroke-linejoin="round"/>
<path d="M266.751 136.951C260.038 133.889 251.56 134.082 244.656 136.686C237.752 139.289 231.968 144.731 228.949 151.463C227.465 154.772 226.592 158.422 224.385 161.301C221.602 164.931 217.107 166.795 212.695 168.001C208.283 169.207 203.683 169.935 199.599 171.993C195.514 174.051 191.909 177.839 191.662 182.406L213.424 193.344C216.519 189.965 220.638 187.521 225.114 186.52C221.496 188.297 218.606 191.454 217.042 195.162L226.305 199.818C227.406 196.69 230.378 194.599 233.42 193.278C236.462 191.957 239.744 191.186 242.641 189.573C247.139 187.069 250.446 182.522 251.444 177.472C252.442 172.421 251.889 166.685 248.682 162.657C255.625 158.256 262.368 152.93 265.757 145.442C266.949 142.805 267.302 139.794 266.751 136.951Z" fill="#FF692D"/>
<path d="M256.666 158.725C255.128 158.029 253.59 157.333 252.052 156.637C247.525 156.908 242.997 160.272 242.466 164.775C241.935 169.279 244.987 173.944 249.326 175.261C253.665 176.578 258.795 174.397 260.857 170.358L256.666 158.725Z" fill="#FFC9B1"/>
<path d="M248.84 165.367C250.905 165.247 252.971 165.127 255.036 165.007" stroke="#1D1141" stroke-width="1.5" stroke-miterlimit="10" stroke-linecap="round" stroke-linejoin="round"/>
<path d="M403.488 84.699L447.226 112.77C447.226 112.77 412.509 168.652 386.483 193.396C360.456 218.139 318.796 247.281 294.082 254.853C250.943 257.393 238.658 217.317 259.922 190.177C287.108 176.843 347.534 141.583 347.534 141.583L403.488 84.699Z" fill="#F2E9F8"/>
<path d="M388.968 99.46L436.001 130.066" stroke="#1D1141" stroke-width="1.5" stroke-miterlimit="10" stroke-linecap="round" stroke-linejoin="round"/>
<path d="M398.321 104.369L409.084 93.067" stroke="#1D1141" stroke-width="1.5" stroke-miterlimit="10" stroke-linecap="round" stroke-linejoin="round"/>
<path d="M406.112 110.268L416.744 97.508" stroke="#1D1141" stroke-width="1.5" stroke-miterlimit="10" stroke-linecap="round" stroke-linejoin="round"/>
<path d="M422.85 121.508L436.696 108.616" stroke="#1D1141" stroke-width="1.5" stroke-miterlimit="10" stroke-linecap="round" stroke-linejoin="round"/>
<path d="M440.368 112.771L431.315 127.016" stroke="#1D1141" stroke-width="1.5" stroke-miterlimit="10" stroke-linecap="round" stroke-linejoin="round"/>
<path d="M398.916 175.2C389.977 169.166 376.798 170.509 369.261 178.223C361.724 185.937 360.687 199.144 366.927 207.94" stroke="#1D1141" stroke-width="1.5" stroke-miterlimit="10" stroke-linecap="round" stroke-linejoin="round"/>
</g>
</g>
<defs>
<filter id="filter0_d_39_16348" x="-220" y="-42" width="758" height="508" filterUnits="userSpaceOnUse" color-interpolation-filters="sRGB">
<feFlood flood-opacity="0" result="BackgroundImageFix"/>
<feColorMatrix in="SourceAlpha" type="matrix" values="0 0 0 0 0 0 0 0 0 0 0 0 0 0 0 0 0 0 127 0" result="hardAlpha"/>
<feOffset dy="4"/>
<feGaussianBlur stdDeviation="2"/>
<feComposite in2="hardAlpha" operator="out"/>
<feColorMatrix type="matrix" values="0 0 0 0 0 0 0 0 0 0 0 0 0 0 0 0 0 0 0.25 0"/>
<feBlend mode="normal" in2="BackgroundImageFix" result="effect1_dropShadow_39_16348"/>
<feBlend mode="normal" in="SourceGraphic" in2="effect1_dropShadow_39_16348" result="shape"/>
</filter>
<clipPath id="clip0_39_16348">
<rect width="750" height="500" fill="white" transform="translate(-216 -42)"/>
</clipPath>
</defs>
</svg>
