<svg width="772" height="631" viewBox="0 0 772 631" fill="none" xmlns="http://www.w3.org/2000/svg">
<path d="M391.857 354.567C455.72 267.064 445.657 146.553 369.38 85.3983C293.103 24.2435 179.497 45.6027 115.634 133.106C51.7713 220.608 61.8345 341.119 138.111 402.274C214.388 463.429 327.994 442.069 391.857 354.567Z" fill="#ECECEC"/>
<path d="M379.56 612.782L367.615 634.467H391.505L379.56 612.782Z" fill="#FFCD01"/>
<path d="M544.154 84.8042L532.209 106.489H556.099L544.154 84.8042Z" fill="#546CFF"/>
<path d="M47.1529 428.799L59.0979 407.114H35.2079L47.1529 428.799Z" fill="#FF692D"/>
<path d="M747.689 197.589L741.165 191.979C743.168 189.42 743.986 185.65 743.349 181.893C742.714 178.136 740.71 174.888 737.991 173.208L742.276 165.59C747.163 168.609 750.583 173.987 751.658 180.349C752.736 186.711 751.288 192.994 747.689 197.589Z" fill="#546CFF"/>
<path d="M673.83 107.328C672.216 101.629 673.212 95.2504 676.56 89.8263C679.907 84.4038 685.054 80.8386 690.676 80.0447L691.801 88.8117C688.672 89.2524 685.622 91.4288 683.645 94.6331C681.667 97.8358 681.022 101.643 681.919 104.814L673.83 107.328Z" fill="#FF692D"/>
<path d="M299.691 148.908C298.113 148.908 296.543 148.703 295.018 148.284L297.157 139.729C300.206 140.56 303.818 139.767 306.811 137.593C309.802 135.417 311.778 132.151 312.1 128.859L320.493 129.757C319.918 135.672 316.686 141.178 311.622 144.86C307.964 147.52 303.793 148.908 299.691 148.908Z" fill="#FFCD01"/>
<path d="M144.998 113.069C141.531 113.069 137.986 112.106 134.716 110.214C129.318 107.096 125.562 101.967 124.412 96.1453L132.677 94.353C133.316 97.5921 135.601 100.626 138.79 102.47C141.978 104.31 145.647 104.718 148.603 103.556L151.566 111.84C149.473 112.661 147.252 113.069 144.998 113.069Z" fill="#546CFF"/>
<path d="M766.182 436.876L760.294 430.54C762.554 428.232 763.766 424.578 763.531 420.771C763.298 416.964 761.65 413.505 759.125 411.519L764.19 404.445C768.726 408.015 771.557 413.758 771.953 420.203C772.349 426.649 770.245 432.725 766.182 436.876Z" fill="#FFCD01"/>
<path d="M491.221 623.685C490.158 617.844 491.753 611.599 495.601 606.552C499.448 601.504 504.905 598.493 510.573 598.29L510.862 607.131C507.708 607.243 504.466 609.089 502.194 612.071C499.922 615.053 498.918 618.774 499.511 622.026L491.221 623.685Z" fill="#FF692D"/>
<path d="M371.458 315.372V318.563C371.458 323.298 375.121 327.138 379.64 327.138H593.521V306.797H379.64C375.121 306.797 371.458 310.636 371.458 315.372Z" fill="#1D1141"/>
<path d="M484.766 315.372V318.563C484.766 323.298 488.43 327.138 492.948 327.138H593.522V306.797H492.948C488.43 306.797 484.766 310.636 484.766 315.372Z" fill="#FCFCFC"/>
<path d="M389.964 335.713V352.123C389.964 356.858 393.628 360.698 398.146 360.698H612.028V327.139H398.146C393.627 327.138 389.964 330.977 389.964 335.713Z" fill="#D7A4FE"/>
<path d="M503.271 335.713V352.123C503.271 356.858 506.934 360.698 511.452 360.698H612.027V327.139H511.452C506.933 327.138 503.271 330.977 503.271 335.713Z" fill="#FCFCFC"/>
<path d="M379.56 242.624V255.467C379.56 260.203 383.223 264.042 387.741 264.042H622.388V234.049H387.741C383.223 234.05 379.56 237.888 379.56 242.624Z" fill="#FFCD01"/>
<path d="M472.579 242.624V255.467C472.579 260.203 476.243 264.042 480.761 264.042H622.388V234.049H480.761C476.242 234.05 472.579 237.888 472.579 242.624Z" fill="#FCFCFC"/>
<path d="M482.49 244.104H567.038" stroke="#ECECEC" stroke-width="2.8549" stroke-miterlimit="10" stroke-linecap="round" stroke-linejoin="round"/>
<path d="M482.49 253.046H567.037" stroke="#ECECEC" stroke-width="2.8549" stroke-miterlimit="10" stroke-linecap="round" stroke-linejoin="round"/>
<path d="M407.522 159.405V225.475C407.522 230.211 411.185 234.05 415.703 234.05H622.901V150.83H415.703C411.185 150.83 407.522 154.669 407.522 159.405Z" fill="#546CFF"/>
<path d="M517.419 159.405V225.475C517.419 230.211 521.082 234.05 525.601 234.05H622.902V150.83H525.601C521.082 150.83 517.419 154.669 517.419 159.405Z" fill="#ECECEC"/>
<path d="M529.091 163.136H613.639" stroke="#FCFCFC" stroke-width="2.8549" stroke-miterlimit="10" stroke-linecap="round" stroke-linejoin="round"/>
<path d="M529.091 172.079H613.639" stroke="#FCFCFC" stroke-width="2.8549" stroke-miterlimit="10" stroke-linecap="round" stroke-linejoin="round"/>
<path d="M529.091 181.021H613.639" stroke="#FCFCFC" stroke-width="2.8549" stroke-miterlimit="10" stroke-linecap="round" stroke-linejoin="round"/>
<path d="M498.854 158.069V225.609" stroke="#1D1141" stroke-width="2.8549" stroke-miterlimit="10" stroke-linecap="round" stroke-linejoin="round"/>
<path d="M484.766 158.069V225.609" stroke="#1D1141" stroke-width="2.8549" stroke-miterlimit="10" stroke-linecap="round" stroke-linejoin="round"/>
<path d="M442.643 183.74H427.19V199.937H442.643V183.74Z" stroke="#1D1141" stroke-width="2.8549" stroke-miterlimit="10" stroke-linecap="round" stroke-linejoin="round"/>
<path d="M392.24 272.618V298.222C392.24 302.958 395.903 306.797 400.421 306.797H614.303V264.043H400.421C395.903 264.043 392.24 267.881 392.24 272.618Z" fill="#FF692D"/>
<path d="M505.547 272.617V298.222C505.547 302.957 509.21 306.797 513.728 306.797H614.303V264.042H513.728C509.21 264.042 505.547 267.881 505.547 272.617Z" fill="#ECECEC"/>
<path d="M486.32 273.582V299.981" stroke="#1D1141" stroke-width="2.8549" stroke-miterlimit="10" stroke-linecap="round" stroke-linejoin="round"/>
<path d="M418.561 273.582V299.981" stroke="#1D1141" stroke-width="2.8549" stroke-miterlimit="10" stroke-linecap="round" stroke-linejoin="round"/>
<path d="M407.522 273.582V299.981" stroke="#1D1141" stroke-width="2.8549" stroke-miterlimit="10" stroke-linecap="round" stroke-linejoin="round"/>
<path d="M631.137 317.757L665.35 231.728L749.321 258.591C752.806 259.707 753.074 264.77 749.728 266.281L739.736 270.794C725.723 277.124 715.114 289.646 710.773 304.978L695.44 359.143L631.137 317.757Z" fill="#1D1141"/>
<path d="M715.68 289.817C707.703 288.371 699.728 286.924 691.751 285.477C698.351 290.675 704.951 295.873 711.551 301.071C702.709 299.858 693.867 298.646 685.025 297.434C692.856 302.769 700.686 308.105 708.517 313.441C699.391 312.338 690.266 311.235 681.141 310.132C689.315 315.546 697.491 320.961 705.665 326.375" stroke="#FCFCFC" stroke-width="2.8549" stroke-miterlimit="10" stroke-linecap="round" stroke-linejoin="round"/>
<path d="M537.697 357.699L604.915 362.362L624.071 313.772L704.104 342.73L677.293 441.869L529.463 373.4L537.697 357.699Z" fill="#546CFF"/>
<path d="M424.383 309.897L455.685 325.29L413.606 407.483L361.972 414.827L424.383 309.897Z" fill="#FFC9B1"/>
<path d="M585.227 338.866L561.897 248.928L643.935 216.154C647.34 214.794 650.515 218.621 648.756 221.966L643.507 231.954C636.145 245.963 635.095 262.673 640.641 277.572L660.234 330.207L585.227 338.866Z" fill="#1D1141"/>
<path d="M638.393 252.803C629.383 258.573 620.372 264.343 611.363 270.113C620.179 269.22 628.995 268.326 637.811 267.432C629.862 271.823 621.914 276.214 613.965 280.605C623.294 280.195 632.624 279.785 641.954 279.375C635.123 282.745 628.308 286.228 621.477 289.598C629.669 289.804 637.844 290.495 646.037 290.701" stroke="#FCFCFC" stroke-width="2.8549" stroke-miterlimit="10" stroke-linecap="round" stroke-linejoin="round"/>
<path d="M406.807 408.45L447.545 321.069L460.285 325.092C460.285 325.092 534.103 308.336 554.515 362.361L594.117 376.338L582.183 336.411L658.734 316.402C658.734 316.402 681.447 376.748 690.919 403.396C700.391 430.044 690.895 477.055 639.984 473.255C589.074 469.455 430.511 446.96 430.511 446.96L406.807 408.45Z" fill="#546CFF"/>
<path d="M460.285 325.091L424.383 404.448" stroke="#1D1141" stroke-width="2.8549" stroke-miterlimit="10" stroke-linecap="round" stroke-linejoin="round"/>
<path d="M553.622 362.409C567.838 367.397 582.055 372.384 596.271 377.372" stroke="#1D1141" stroke-width="2.8549" stroke-miterlimit="10" stroke-linecap="round" stroke-linejoin="round"/>
<path d="M588.874 360.516C590.847 365.724 592.821 370.932 594.794 376.14" stroke="#1D1141" stroke-width="2.8549" stroke-miterlimit="10" stroke-linecap="round" stroke-linejoin="round"/>
<path d="M446.004 358.889C500.024 376.101 554.044 393.312 608.063 410.525C612.443 411.921 617.525 413.065 621.914 414.429C623.879 415.041 625.893 415.657 627.939 415.529C629.986 415.401 632.104 414.375 633.027 412.457C634.216 409.987 633.017 406.846 630.994 405.067C628.972 403.287 626.326 402.54 623.779 401.811C621.232 401.082 618.591 400.267 616.645 398.397C614.698 396.526 613.695 393.274 615.085 390.921C616.743 388.114 620.731 388.061 623.612 389.396C626.493 390.732 628.91 393.065 631.889 394.139C624.282 372.725 616.362 351.195 608.755 329.781" stroke="#1D1141" stroke-width="2.8549" stroke-miterlimit="10" stroke-linecap="round" stroke-linejoin="round"/>
<path d="M663.414 327.86C672.332 351.749 681.25 375.637 690.169 399.526" stroke="#1D1141" stroke-width="2.8549" stroke-miterlimit="10" stroke-linecap="round" stroke-linejoin="round"/>
<path d="M446.454 408.741C466.108 406.025 484.229 393.067 493.811 374.877" stroke="#1D1141" stroke-width="2.8549" stroke-miterlimit="10" stroke-linecap="round" stroke-linejoin="round"/>
<path d="M271.615 301.84L262.952 353.701L311.508 351.331L271.615 301.84Z" fill="#FFCD01"/>
<path d="M271.615 301.839L281.314 253.279C281.314 253.279 313.9 238.685 361.917 262.948C409.933 287.211 440.748 305.567 440.748 305.567L388.776 407.482L318.412 408.22L271.615 301.839Z" fill="#F2E9F8"/>
<path d="M278.793 272.86C285.425 276.299 292.058 279.738 298.691 283.178C303.345 272.956 308.162 262.914 312.816 252.693" stroke="#1D1141" stroke-width="2.8549" stroke-miterlimit="10" stroke-linecap="round" stroke-linejoin="round"/>
<path d="M431.339 303.485C414.391 338.44 396.595 372.862 377.98 406.698" stroke="#1D1141" stroke-width="2.8549" stroke-miterlimit="10" stroke-linecap="round" stroke-linejoin="round"/>
<path d="M303.37 250.938L306.191 253.78L296.515 276.504L269.841 262.123L303.37 250.938Z" fill="#FFC9B1"/>
<path d="M327.379 192.36C325.393 188.046 320.369 185.391 315.97 186.696C313.177 187.526 310.942 189.691 308.937 191.892C304.152 197.145 300.038 203.054 296.635 209.379C292.156 206.694 287.012 205.183 281.843 205.032C273.911 204.799 266.527 208.912 259.327 212.409C257.745 213.177 256.803 215.171 257.178 216.956C257.554 218.742 259.21 220.134 260.954 220.134L295.287 252.253C298.785 253.387 302.272 254.629 305.771 255.764C309.523 249.505 311.544 242.065 311.179 234.683C310.914 229.352 309.36 224.084 306.695 219.546C310.173 216.659 313.816 213.992 317.636 211.626C320.394 209.918 323.294 208.3 325.4 205.771C328.406 202.16 329.367 196.674 327.379 192.36Z" fill="#FF692D"/>
<path d="M291.174 259.027C293.607 259.264 296.096 259.498 298.465 258.872C302.323 257.852 305.504 254.419 306.363 250.347C307.221 246.275 305.716 241.757 302.627 239.129C299.537 236.501 295.151 236.094 291.527 237.812C291.131 239.378 290.898 241.09 290.502 242.655C287.297 242.212 284.377 239.936 283.051 236.846C281.872 234.097 281.897 230.848 280.39 228.283C278.916 225.774 276.259 224.374 273.989 222.636C271.72 220.898 269.594 218.235 270.073 215.332C264.902 215.642 259.736 218.546 256.723 222.963C252.565 229.062 250.766 236.471 249.961 243.92C249.518 248.028 248.816 252.534 250.445 256.299C252.074 260.064 255.051 263.168 258.651 264.856C269.555 269.967 282.105 267.176 291.174 259.027Z" fill="#FFC9B1"/>
<path d="M268.867 247.968C269.799 247.968 270.554 247.176 270.554 246.199C270.554 245.222 269.799 244.43 268.867 244.43C267.934 244.43 267.179 245.222 267.179 246.199C267.179 247.176 267.934 247.968 268.867 247.968Z" fill="#1D1141"/>
<path d="M250.778 242.236C251.71 242.236 252.466 241.444 252.466 240.467C252.466 239.49 251.71 238.698 250.778 238.698C249.846 238.698 249.09 239.49 249.09 240.467C249.09 241.444 249.846 242.236 250.778 242.236Z" fill="#1D1141"/>
<path d="M294.49 246.834C296.197 246.41 297.902 245.985 299.608 245.561" stroke="#1D1141" stroke-width="2.8549" stroke-miterlimit="10" stroke-linecap="round" stroke-linejoin="round"/>
<path d="M292.542 259.02C294.688 259.778 297.06 259.814 299.226 259.119C301.391 258.425 303.339 257.004 304.713 255.118" stroke="#1D1141" stroke-width="2.8549" stroke-miterlimit="10" stroke-linecap="round" stroke-linejoin="round"/>
<path d="M277.449 266.697C278.665 266.396 279.88 266.097 281.096 265.797" stroke="#1D1141" stroke-width="2.8549" stroke-miterlimit="10" stroke-linecap="round" stroke-linejoin="round"/>
<path d="M271.681 253.074C276.317 253.074 280.075 249.135 280.075 244.277C280.075 239.418 276.317 235.479 271.681 235.479C267.046 235.479 263.288 239.418 263.288 244.277C263.288 249.135 267.046 253.074 271.681 253.074Z" stroke="#1D1141" stroke-width="2.8549" stroke-miterlimit="10" stroke-linecap="round" stroke-linejoin="round"/>
<path d="M257.152 238.463C258.191 233.728 256.803 229.352 254.052 228.689C251.301 228.026 248.228 231.326 247.189 236.062C246.15 240.797 247.538 245.173 250.289 245.836C253.04 246.499 256.113 243.198 257.152 238.463Z" stroke="#1D1141" stroke-width="2.8549" stroke-miterlimit="10" stroke-linecap="round" stroke-linejoin="round"/>
<path d="M257.856 238.013C258.663 236.93 260.144 236.461 261.388 236.897C262.632 237.331 263.549 238.639 263.574 240.012" stroke="#1D1141" stroke-width="2.8549" stroke-miterlimit="10" stroke-linecap="round" stroke-linejoin="round"/>
<path d="M259.95 240.153C258.807 242.555 257.664 244.957 256.522 247.358C257.513 247.412 258.504 247.465 259.496 247.519" stroke="#1D1141" stroke-width="2.8549" stroke-miterlimit="10" stroke-linecap="round" stroke-linejoin="round"/>
<path d="M259.958 252.054C260.27 252.803 261.028 253.324 261.808 253.323C262.588 253.322 263.346 252.803 263.657 252.053" stroke="#1D1141" stroke-width="2.8549" stroke-miterlimit="10" stroke-linecap="round" stroke-linejoin="round"/>
<path d="M255.419 224.324C256.537 223.062 258.309 222.479 259.915 222.848C261.52 223.216 262.9 224.52 263.413 226.157" stroke="#1D1141" stroke-width="2.8549" stroke-miterlimit="10" stroke-linecap="round" stroke-linejoin="round"/>
<path d="M271.122 229.241C273.171 229.558 275.22 229.874 277.269 230.191" stroke="#1D1141" stroke-width="2.8549" stroke-miterlimit="10" stroke-linecap="round" stroke-linejoin="round"/>
<path d="M139.314 477.856V482.872C139.314 489.04 144.085 494.041 149.971 494.041H446.605V466.687H149.971C144.086 466.686 139.314 471.686 139.314 477.856Z" fill="#546CFF"/>
<path d="M284.224 477.856V482.872C284.224 489.04 288.995 494.041 294.881 494.041H446.604V466.687H294.881C288.995 466.686 284.224 471.686 284.224 477.856Z" fill="#FFEB84"/>
<path d="M179.862 413.568V455.516C179.862 461.685 184.632 466.686 190.518 466.686H463.86V402.4H190.518C184.633 402.4 179.862 407.4 179.862 413.568Z" fill="#FF692D"/>
<path d="M324.772 413.568V455.516C324.772 461.685 329.543 466.686 335.429 466.686H463.861V402.4H335.429C329.543 402.4 324.772 407.4 324.772 413.568Z" fill="#FCFCFC"/>
<path d="M337.286 413.985H452.182" stroke="#FFEB84" stroke-width="2.8549" stroke-miterlimit="10" stroke-linecap="round" stroke-linejoin="round"/>
<path d="M337.286 422.928H452.182" stroke="#FFEB84" stroke-width="2.8549" stroke-miterlimit="10" stroke-linecap="round" stroke-linejoin="round"/>
<path d="M337.286 431.87H452.182" stroke="#FFEB84" stroke-width="2.8549" stroke-miterlimit="10" stroke-linecap="round" stroke-linejoin="round"/>
<path d="M292.253 425.34H200.209V440.889H292.253V425.34Z" stroke="#1D1141" stroke-width="2.8549" stroke-miterlimit="10" stroke-linecap="round" stroke-linejoin="round"/>
<path d="M301.602 502.467C301.602 512.99 293.464 521.52 283.424 521.52H23.7503V483.414H283.424C293.464 483.415 301.602 491.945 301.602 502.467Z" fill="#FFCD01"/>
<path d="M159.181 502.467C159.181 512.99 151.043 521.52 141.003 521.52H23.7503V483.414H141.003C151.043 483.415 159.181 491.945 159.181 502.467Z" fill="#FCFCFC"/>
<path d="M35.5764 493.525H138.344" stroke="#FFEB84" stroke-width="2.8549" stroke-miterlimit="10" stroke-linecap="round" stroke-linejoin="round"/>
<path d="M35.5764 502.467H138.344" stroke="#FFEB84" stroke-width="2.8549" stroke-miterlimit="10" stroke-linecap="round" stroke-linejoin="round"/>
<path d="M327.566 540.573V583.335C327.566 593.858 319.427 602.388 309.387 602.388H62.5914V521.52H309.387C319.427 521.52 327.566 530.05 327.566 540.573Z" fill="#1D1141"/>
<path d="M197.526 540.573V583.335C197.526 593.858 189.388 602.388 179.348 602.388H50.2396V521.52H179.348C189.388 521.52 197.526 530.05 197.526 540.573Z" fill="#FFEB84"/>
<path d="M61.5028 533.048H182.96" stroke="#FCFCFC" stroke-width="2.8549" stroke-miterlimit="10" stroke-linecap="round" stroke-linejoin="round"/>
<path d="M61.5028 541.99H182.96" stroke="#FCFCFC" stroke-width="2.8549" stroke-miterlimit="10" stroke-linecap="round" stroke-linejoin="round"/>
<path d="M61.5028 550.933H182.96" stroke="#FCFCFC" stroke-width="2.8549" stroke-miterlimit="10" stroke-linecap="round" stroke-linejoin="round"/>
<path d="M249.09 545.677H219.036V577.177H249.09V545.677Z" stroke="#FCFCFC" stroke-width="2.8549" stroke-miterlimit="10" stroke-linecap="round" stroke-linejoin="round"/>
<path d="M434.679 548.744V548.964C434.679 556.057 440.164 561.806 446.931 561.806H752.732V535.902H446.931C440.164 535.902 434.679 541.652 434.679 548.744Z" fill="#546CFF"/>
<path d="M596.965 548.744V548.964C596.965 556.057 602.45 561.806 609.217 561.806H752.732V535.902H609.217C602.45 535.902 596.965 541.652 596.965 548.744Z" fill="#FFEB84"/>
<path d="M427.562 454.685V462.899C427.562 469.992 433.048 475.741 439.815 475.741H729.259V441.844H439.815C433.048 441.844 427.562 447.593 427.562 454.685Z" fill="#F2E9F8"/>
<path d="M581.503 454.685V462.899C581.503 469.992 586.989 475.741 593.756 475.741H729.26V441.844H593.756C586.989 441.844 581.503 447.593 581.503 454.685Z" fill="#FFEB84"/>
<path d="M594.925 450.741H679.472" stroke="#FCFCFC" stroke-width="2.8549" stroke-miterlimit="10" stroke-linecap="round" stroke-linejoin="round"/>
<path d="M594.925 459.683H679.473" stroke="#FCFCFC" stroke-width="2.8549" stroke-miterlimit="10" stroke-linecap="round" stroke-linejoin="round"/>
<path d="M409.804 488.583V523.06C409.804 530.152 415.289 535.902 422.056 535.902H740.245V475.74H422.056C415.289 475.741 409.804 481.49 409.804 488.583Z" fill="#FF692D"/>
<path d="M578.411 488.583V523.06C578.411 530.152 583.896 535.902 590.663 535.902H740.245V475.74H590.663C583.897 475.741 578.411 481.49 578.411 488.583Z" fill="#FCFCFC"/>
<path d="M591.911 485.975H729.26" stroke="#FFEB84" stroke-width="2.8549" stroke-miterlimit="10" stroke-linecap="round" stroke-linejoin="round"/>
<path d="M591.911 494.917H729.26" stroke="#FFEB84" stroke-width="2.8549" stroke-miterlimit="10" stroke-linecap="round" stroke-linejoin="round"/>
<path d="M591.911 503.86H729.26" stroke="#FFEB84" stroke-width="2.8549" stroke-miterlimit="10" stroke-linecap="round" stroke-linejoin="round"/>
<path d="M559.926 488.903V521.52" stroke="#1D1141" stroke-width="2.8549" stroke-miterlimit="10" stroke-linecap="round" stroke-linejoin="round"/>
<path d="M430.105 488.903V521.52" stroke="#1D1141" stroke-width="2.8549" stroke-miterlimit="10" stroke-linecap="round" stroke-linejoin="round"/>
<path d="M544.153 488.903V521.52" stroke="#1D1141" stroke-width="2.8549" stroke-miterlimit="10" stroke-linecap="round" stroke-linejoin="round"/>
<path d="M179.516 331.292C179.516 331.292 207.667 329.341 216.154 329.355C224.64 329.368 238.546 333.796 246.337 338.672L245.106 360.77L196.482 348.389L178.676 336.311L179.516 331.292Z" fill="#FFC9B1"/>
<path d="M115.863 405.61L210.227 392.761L149.936 260.175L47.977 269.966L107.486 400.831C108.997 404.156 112.378 406.085 115.863 405.61Z" fill="#546CFF"/>
<path d="M56.5161 273.844L115.863 405.61" stroke="#1D1141" stroke-width="2.8549" stroke-miterlimit="10" stroke-linecap="round" stroke-linejoin="round"/>
<path d="M138.008 306.11L103.355 311.323L115.33 337.451L150.202 332.925L138.008 306.11Z" stroke="#1D1141" stroke-width="2.8549" stroke-miterlimit="10" stroke-linecap="round" stroke-linejoin="round"/>
<path d="M149.935 260.175L144.533 247.764L117.09 253.849L102.366 221.469L49.6463 262.036C44.5938 265.924 47.8107 274.31 54.0248 273.45L149.935 260.175Z" fill="#FCFCFC"/>
<path d="M117.09 253.851L52.1462 264.732" stroke="#1D1141" stroke-width="2.8549" stroke-miterlimit="10" stroke-linecap="round" stroke-linejoin="round"/>
<path d="M49.8185 263.19C51.3504 266.017 50.9447 269.855 48.8586 272.263" stroke="#1D1141" stroke-width="2.8549" stroke-miterlimit="10" stroke-linecap="round" stroke-linejoin="round"/>
<path d="M198.811 347.036C189.336 349.932 179.861 352.83 170.386 355.727C169.273 356.068 168.126 356.425 167.227 357.194C166.327 357.963 165.731 359.256 166.09 360.413C172.088 360.514 177.893 360.807 183.891 360.908C178.599 361.45 173.049 361.873 167.756 362.416C165.673 362.629 163.941 364.267 163.624 366.435C175.212 368.947 187.313 370.805 199.013 372.664C190.001 373.461 180.488 373.656 171.476 374.451C170.111 374.572 168.701 374.705 167.496 375.388C166.291 376.071 165.336 377.456 165.551 378.874C177.281 380.287 189.041 382.094 200.649 384.357C194.412 384.498 188.17 384.526 181.933 384.666C180.593 384.697 179.225 384.732 177.961 385.202C176.697 385.673 175.533 386.663 175.177 388.019L210.447 397.879L240.065 386.168L244.326 353.701L198.811 347.036Z" fill="#FFC9B1"/>
<path d="M195.092 347.573C198.797 346.382 202.501 345.19 206.205 343.999" stroke="#1D1141" stroke-width="2.8549" stroke-miterlimit="10" stroke-linecap="round" stroke-linejoin="round"/>
<path d="M175.948 360.238C185.213 360.374 194.479 360.51 203.744 360.646" stroke="#1D1141" stroke-width="2.8549" stroke-miterlimit="10" stroke-linecap="round" stroke-linejoin="round"/>
<path d="M193.08 372.012C196.057 372.198 199.035 372.383 202.013 372.569" stroke="#1D1141" stroke-width="2.8549" stroke-miterlimit="10" stroke-linecap="round" stroke-linejoin="round"/>
<path d="M193.07 383.354C195.969 383.944 198.868 384.533 201.767 385.123" stroke="#1D1141" stroke-width="2.8549" stroke-miterlimit="10" stroke-linecap="round" stroke-linejoin="round"/>
<path d="M243.671 333.027L290.116 343.897C290.116 343.897 290.845 330.618 299.358 305.567C310.583 272.538 352.093 287.345 349.642 317.723C347.191 348.101 337.834 376.772 331.474 391.117C325.114 405.462 308.793 414.74 281.314 406.998C253.836 399.257 235.88 393.845 235.88 393.845L243.671 333.027Z" fill="#FFCD01"/>
<path d="M264.946 338.294C278.523 341.55 292.1 344.806 305.677 348.061" stroke="#1D1141" stroke-width="2.8549" stroke-miterlimit="10" stroke-linecap="round" stroke-linejoin="round"/>
<path d="M272.88 340.971C269.751 360.816 266.622 380.662 263.492 400.507" stroke="#1D1141" stroke-width="2.8549" stroke-miterlimit="10" stroke-linecap="round" stroke-linejoin="round"/>
<path d="M243.678 348.664C252.61 350.154 261.543 351.642 270.476 353.132" stroke="#1D1141" stroke-width="2.8549" stroke-miterlimit="10" stroke-linecap="round" stroke-linejoin="round"/>
<path d="M243.18 360.395C251.791 361.735 260.402 363.073 269.013 364.412" stroke="#1D1141" stroke-width="2.8549" stroke-miterlimit="10" stroke-linecap="round" stroke-linejoin="round"/>
<path d="M241.665 376.484C249.689 379.437 257.712 382.39 265.736 385.342" stroke="#1D1141" stroke-width="2.8549" stroke-miterlimit="10" stroke-linecap="round" stroke-linejoin="round"/>
<path d="M240.218 388.364C248.413 389.727 256.607 391.089 264.801 392.453" stroke="#1D1141" stroke-width="2.8549" stroke-miterlimit="10" stroke-linecap="round" stroke-linejoin="round"/>
</svg>
