<svg width="486" height="459" viewBox="0 0 486 459" fill="none" xmlns="http://www.w3.org/2000/svg">
<path d="M340.777 252.865C385.33 194.622 378.309 114.409 325.096 73.7036C271.883 32.9983 192.628 47.2151 148.075 105.458C103.523 163.7 110.543 243.914 163.756 284.619C216.969 325.324 296.224 311.107 340.777 252.865Z" fill="#F5F5F5"/>
<path d="M251.751 458.664C381.123 458.664 486 455.832 486 452.338C486 448.845 381.123 446.012 251.751 446.012C122.378 446.012 17.5013 448.845 17.5013 452.338C17.5013 455.832 122.378 458.664 251.751 458.664Z" fill="#F5F5F5"/>
<path d="M6.34272 285.1L0 296.086H12.6854L6.34272 285.1Z" fill="#FFCD01"/>
<path d="M436.666 267.628L430.323 278.614H443.009L436.666 267.628Z" fill="#FF692D"/>
<path d="M394.74 90.9391L401.082 79.953H388.397L394.74 90.9391Z" fill="#546CFF"/>
<path d="M302.927 39.4017L299.463 36.5586C300.526 35.2625 300.961 33.3525 300.623 31.4492C300.286 29.546 299.221 27.9015 297.777 27.0501L300.053 23.1898C302.647 24.7189 304.464 27.4444 305.034 30.6673C305.607 33.8902 304.838 37.0739 302.927 39.4017Z" fill="#FF692D"/>
<path d="M235.27 99.5865C234.413 96.6985 234.942 93.4667 236.721 90.7188C238.498 87.9709 241.231 86.1662 244.215 85.7651L244.812 90.2057C243.151 90.4298 241.532 91.5321 240.481 93.1542C239.43 94.7774 239.089 96.7064 239.565 98.3128L235.27 99.5865Z" fill="#546CFF"/>
<path d="M129.494 37.6355C128.655 37.6355 127.822 37.5313 127.013 37.3185L128.148 32.9843C129.771 33.4089 131.686 33.0056 133.275 31.9022C134.863 30.7999 135.913 29.1464 136.082 27.4784L140.54 27.9321C140.236 30.9287 138.518 33.7181 135.83 35.5832C133.887 36.9309 131.673 37.6355 129.494 37.6355Z" fill="#FF692D"/>
<path d="M33.3994 233.195C31.5589 233.195 29.6769 232.708 27.9394 231.75C25.0728 230.169 23.0799 227.571 22.4683 224.622L26.8562 223.712C27.1956 225.354 28.4099 226.891 30.1026 227.825C31.7953 228.759 33.7445 228.964 35.3128 228.375L36.8867 232.57C35.7765 232.989 34.597 233.195 33.3994 233.195Z" fill="#546CFF"/>
<path d="M437.443 219.114L434.316 215.905C435.517 214.735 436.16 212.884 436.036 210.955C435.913 209.026 435.037 207.274 433.697 206.267L436.385 202.684C438.795 204.492 440.297 207.402 440.508 210.669C440.718 213.935 439.6 217.012 437.443 219.114Z" fill="#FFCD01"/>
<path d="M328.488 87.206C327.924 84.2463 328.771 81.084 330.814 78.5265C332.856 75.969 335.754 74.4432 338.764 74.3413L338.918 78.82C337.242 78.8771 335.522 79.8125 334.316 81.3226C333.109 82.8337 332.576 84.718 332.892 86.3647L328.488 87.206Z" fill="#FFCD01"/>
<path d="M157.068 192.788V206.724C157.068 209.634 159.427 211.992 162.336 211.992H285.701V187.519H162.336C159.427 187.519 157.068 189.878 157.068 192.788Z" fill="#F2E9F8"/>
<path d="M222.703 192.788V206.724C222.703 209.634 225.062 211.992 227.972 211.992H285.701V187.519H227.972C225.061 187.519 222.703 189.878 222.703 192.788Z" fill="#F5F5F5"/>
<path d="M210.803 196.338H168.994V202.77H210.803V196.338Z" stroke="#1D1141" stroke-miterlimit="10" stroke-linecap="round" stroke-linejoin="round"/>
<path d="M288.383 178.997V182.249C288.383 185.16 286.024 187.518 283.115 187.518H159.75V173.728H283.115C286.024 173.729 288.383 176.088 288.383 178.997Z" fill="#546CFF"/>
<path d="M222.749 178.997V182.249C222.749 185.16 220.39 187.518 217.48 187.518H159.751V173.728H217.48C220.39 173.729 222.749 176.088 222.749 178.997Z" fill="white"/>
<path d="M178.413 255.257V295.854C178.413 298.764 180.772 301.122 183.681 301.122H317.121V249.987H183.681C180.772 249.988 178.413 252.348 178.413 255.257Z" fill="#FF692D"/>
<path d="M249.189 255.257V295.854C249.189 298.764 251.548 301.122 254.457 301.122H317.121V249.987H254.457C251.548 249.988 249.189 252.348 249.189 255.257Z" fill="#F5F5F5"/>
<path d="M239.783 257.608V282.421" stroke="#1D1141" stroke-miterlimit="10" stroke-linecap="round" stroke-linejoin="round"/>
<path d="M232.428 257.608V284.014" stroke="#1D1141" stroke-miterlimit="10" stroke-linecap="round" stroke-linejoin="round"/>
<path d="M299.14 227.798V244.718C299.14 247.628 296.781 249.986 293.871 249.986H163.533V222.529H293.871C296.782 222.53 299.14 224.889 299.14 227.798Z" fill="#FFCD01"/>
<path d="M229.947 227.798V244.718C229.947 247.628 227.587 249.986 224.678 249.986H163.533V222.529H224.678C227.587 222.53 229.947 224.889 229.947 227.798Z" fill="#F5F5F5"/>
<path d="M169.413 228.44H224.066" stroke="white" stroke-miterlimit="10" stroke-linecap="round" stroke-linejoin="round"/>
<path d="M169.413 232.97H224.066" stroke="white" stroke-miterlimit="10" stroke-linecap="round" stroke-linejoin="round"/>
<path d="M169.413 237.501H224.066" stroke="white" stroke-miterlimit="10" stroke-linecap="round" stroke-linejoin="round"/>
<path d="M167.371 217.261C167.371 220.171 169.73 222.53 172.639 222.53H302.978V211.992H172.639C169.73 211.991 167.371 214.35 167.371 217.261Z" fill="#FF692D"/>
<path d="M236.564 217.261C236.564 220.171 238.923 222.53 241.832 222.53H302.977V211.992H241.832C238.923 211.991 236.564 214.35 236.564 217.261Z" fill="white"/>
<path d="M171.058 306.393V314.285C171.058 317.195 173.418 319.553 176.327 319.553H309.766V301.123H176.328C173.418 301.123 171.058 303.482 171.058 306.393Z" fill="#1D1141"/>
<path d="M241.835 306.392V314.284C241.835 317.194 244.194 319.553 247.103 319.553H309.767V301.123H247.103C244.194 301.123 241.835 303.482 241.835 306.392Z" fill="#FFC9B1"/>
<path d="M162.203 324.821V340.553C162.203 343.464 164.562 345.822 167.472 345.822H305.215V319.551H167.472C164.562 319.552 162.203 321.912 162.203 324.821Z" fill="#F2E9F8"/>
<path d="M235.175 324.821V340.553C235.175 343.464 237.534 345.822 240.443 345.822H305.215V319.551H240.443C237.534 319.552 235.175 321.912 235.175 324.821Z" fill="#FFC9B1"/>
<path d="M168.906 351.092V353.053C168.906 355.963 171.266 358.321 174.175 358.321H311.919V345.823H174.176C171.266 345.823 168.906 348.182 168.906 351.092Z" fill="#FFCD01"/>
<path d="M241.879 351.093V353.053C241.879 355.963 244.238 358.321 247.148 358.321H311.919V345.823H247.148C244.237 345.823 241.879 348.182 241.879 351.093Z" fill="#FFC9B1"/>
<path d="M168.906 363.592V373.675C168.906 376.586 171.266 378.944 174.175 378.944H311.919V358.323H174.176C171.266 358.323 168.906 360.682 168.906 363.592Z" fill="#546CFF"/>
<path d="M241.879 363.592V373.675C241.879 376.586 244.238 378.944 247.148 378.944H311.919V358.323H247.148C244.237 358.323 241.879 360.682 241.879 363.592Z" fill="#F5F5F5"/>
<path d="M356.381 351.15V363.274C356.381 366.257 353.962 368.676 350.979 368.676H223.371V345.748H350.979C353.961 345.748 356.381 348.167 356.381 351.15Z" fill="#FFCD01"/>
<path d="M288.512 351.15V363.274C288.512 366.257 286.094 368.676 283.11 368.676H223.371V345.748H283.11C286.095 345.748 288.512 348.167 288.512 351.15Z" fill="white"/>
<path d="M228.614 350.921H283.268" stroke="#F5F5F5" stroke-miterlimit="10" stroke-linecap="round" stroke-linejoin="round"/>
<path d="M228.614 355.452H283.268" stroke="#F5F5F5" stroke-miterlimit="10" stroke-linecap="round" stroke-linejoin="round"/>
<path d="M205.328 282.204V298.108C205.328 301.091 207.747 303.51 210.73 303.51H333.079V276.803H210.73C207.747 276.801 205.328 279.22 205.328 282.204Z" fill="#FFCD01"/>
<path d="M270.513 282.204V298.108C270.513 301.091 272.932 303.51 275.915 303.51H333.079V276.802H275.915C272.932 276.801 270.513 279.22 270.513 282.204Z" fill="#F5F5F5"/>
<path d="M276.914 282.935H326.679" stroke="white" stroke-miterlimit="10" stroke-linecap="round" stroke-linejoin="round"/>
<path d="M276.914 287.467H326.679" stroke="white" stroke-miterlimit="10" stroke-linecap="round" stroke-linejoin="round"/>
<path d="M276.914 291.998H326.679" stroke="white" stroke-miterlimit="10" stroke-linecap="round" stroke-linejoin="round"/>
<path d="M262.413 282.424V298.532" stroke="#1D1141" stroke-miterlimit="10" stroke-linecap="round" stroke-linejoin="round"/>
<path d="M255.941 282.424V298.532" stroke="#1D1141" stroke-miterlimit="10" stroke-linecap="round" stroke-linejoin="round"/>
<path d="M352.825 340.347C352.825 343.33 350.407 345.749 347.424 345.749H212.605V334.945H347.424C350.407 334.945 352.825 337.364 352.825 340.347Z" fill="#546CFF"/>
<path d="M281.279 340.347C281.279 343.33 278.86 345.749 275.877 345.749H212.605V334.945H275.877C278.86 334.945 281.279 337.364 281.279 340.347Z" fill="#F5F5F5"/>
<path d="M357.666 308.911V329.543C357.666 332.526 355.247 334.945 352.264 334.945H217.445V303.509H352.264C355.247 303.508 357.666 305.926 357.666 308.911Z" fill="#F2E9F8"/>
<path d="M286.118 308.911V329.543C286.118 332.526 283.7 334.945 280.716 334.945H217.445V303.509H280.716C283.701 303.508 286.118 305.926 286.118 308.911Z" fill="white"/>
<path d="M223.371 309.749H278.025" stroke="#F5F5F5" stroke-miterlimit="10" stroke-linecap="round" stroke-linejoin="round"/>
<path d="M223.371 314.28H278.025" stroke="#F5F5F5" stroke-miterlimit="10" stroke-linecap="round" stroke-linejoin="round"/>
<path d="M223.371 318.811H278.025" stroke="#F5F5F5" stroke-miterlimit="10" stroke-linecap="round" stroke-linejoin="round"/>
<path d="M266.794 384.27V387.612C266.794 390.498 264.455 392.836 261.57 392.836H138.161V379.047H261.571C264.455 379.047 266.794 381.386 266.794 384.27Z" fill="#FF692D"/>
<path d="M201.159 384.27V387.612C201.159 390.498 198.82 392.836 195.935 392.836H138.161V379.047H195.935C198.821 379.047 201.159 381.386 201.159 384.27Z" fill="#F5F5F5"/>
<path d="M274.366 398.061V412.086C274.366 414.972 272.027 417.31 269.141 417.31H133.477V392.836H269.142C272.027 392.836 274.366 395.175 274.366 398.061Z" fill="#FF692D"/>
<path d="M202.478 398.061V412.086C202.478 414.972 200.139 417.31 197.254 417.31H133.477V392.836H197.254C200.139 392.836 202.478 395.175 202.478 398.061Z" fill="#F5F5F5"/>
<path d="M138.466 398.211H193.119" stroke="white" stroke-miterlimit="10" stroke-linecap="round" stroke-linejoin="round"/>
<path d="M138.466 402.743H193.119" stroke="white" stroke-miterlimit="10" stroke-linecap="round" stroke-linejoin="round"/>
<path d="M138.466 407.274H193.119" stroke="white" stroke-miterlimit="10" stroke-linecap="round" stroke-linejoin="round"/>
<path d="M213.97 398.211V411.891" stroke="#1D1141" stroke-miterlimit="10" stroke-linecap="round" stroke-linejoin="round"/>
<path d="M220.252 398.211V411.891" stroke="#1D1141" stroke-miterlimit="10" stroke-linecap="round" stroke-linejoin="round"/>
<path d="M263.761 422.533V422.622C263.761 425.508 261.422 427.846 258.537 427.846H128.154V417.308H258.537C261.422 417.308 263.761 419.647 263.761 422.533Z" fill="#FFCD01"/>
<path d="M194.567 422.533V422.622C194.567 425.508 192.228 427.846 189.343 427.846H128.153V417.308H189.343C192.229 417.308 194.567 419.647 194.567 422.533Z" fill="white"/>
<path d="M275.428 433.073V446.552C275.428 449.438 273.089 451.776 270.204 451.776H132.415V427.848H270.204C273.089 427.848 275.428 430.187 275.428 433.073Z" fill="#FFCD01"/>
<path d="M202.456 433.073V446.552C202.456 449.438 200.117 451.776 197.233 451.776H132.416V427.848H197.233C200.117 427.848 202.456 430.187 202.456 433.073Z" fill="#F5F5F5"/>
<path d="M237.592 432.57V447.199" stroke="#1D1141" stroke-miterlimit="10" stroke-linecap="round" stroke-linejoin="round"/>
<path d="M232.32 432.57V447.199" stroke="#1D1141" stroke-miterlimit="10" stroke-linecap="round" stroke-linejoin="round"/>
<path d="M227.061 432.57V447.199" stroke="#1D1141" stroke-miterlimit="10" stroke-linecap="round" stroke-linejoin="round"/>
<path d="M389.534 373.899V381.881C389.534 384.766 387.195 387.104 384.31 387.104H250.825V368.674H384.309C387.195 368.675 389.534 371.014 389.534 373.899Z" fill="#F2E9F8"/>
<path d="M318.758 373.899V381.881C318.758 384.766 316.419 387.104 313.535 387.104H250.825V368.674H313.535C316.419 368.675 318.758 371.014 318.758 373.899Z" fill="white"/>
<path d="M258.791 373.361H313.446" stroke="#F5F5F5" stroke-miterlimit="10" stroke-linecap="round" stroke-linejoin="round"/>
<path d="M258.791 377.891H313.446" stroke="#F5F5F5" stroke-miterlimit="10" stroke-linecap="round" stroke-linejoin="round"/>
<path d="M234.653 418.432V420.652C234.653 423.537 236.992 425.875 239.876 425.875H377.665V413.209H239.876C236.992 413.209 234.653 415.548 234.653 418.432Z" fill="#F2E9F8"/>
<path d="M307.624 418.432V420.652C307.624 423.537 309.963 425.875 312.848 425.875H377.664V413.209H312.848C309.963 413.209 307.624 415.548 307.624 418.432Z" fill="#F5F5F5"/>
<path d="M256.757 392.33V407.984C256.757 410.87 259.096 413.208 261.981 413.208H399.77V387.105H261.982C259.096 387.106 256.757 389.444 256.757 392.33Z" fill="#1D1141"/>
<path d="M329.729 392.33V407.984C329.729 410.87 332.068 413.208 334.952 413.208H399.768V387.105H334.952C332.068 387.106 329.729 389.444 329.729 392.33Z" fill="white"/>
<path d="M337.422 393.83H392.077" stroke="#F5F5F5" stroke-miterlimit="10" stroke-linecap="round" stroke-linejoin="round"/>
<path d="M337.422 398.362H392.077" stroke="#F5F5F5" stroke-miterlimit="10" stroke-linecap="round" stroke-linejoin="round"/>
<path d="M337.422 402.892H392.077" stroke="#F5F5F5" stroke-miterlimit="10" stroke-linecap="round" stroke-linejoin="round"/>
<path d="M311.919 395.889H267.892V403.863H311.919V395.889Z" stroke="white" stroke-miterlimit="10" stroke-linecap="round" stroke-linejoin="round"/>
<path d="M243.982 431.06V446.593C243.982 449.456 246.303 451.777 249.165 451.777H385.885V425.876H249.165C246.303 425.876 243.982 428.197 243.982 431.06Z" fill="#546CFF"/>
<path d="M316.389 431.06V446.593C316.389 449.456 318.71 451.777 321.572 451.777H385.886V425.876H321.572C318.709 425.876 316.389 428.197 316.389 431.06Z" fill="#F5F5F5"/>
<path d="M303.833 435.137H254.462V441.618H303.833V435.137Z" stroke="#1D1141" stroke-miterlimit="10" stroke-linecap="round" stroke-linejoin="round"/>
<path d="M331.872 436.685V446.551C331.872 449.437 334.212 451.775 337.096 451.775H460.506V431.46H337.097C334.212 431.46 331.872 433.799 331.872 436.685Z" fill="#1D1141"/>
<path d="M397.508 436.685V446.551C397.508 449.437 399.847 451.775 402.731 451.775H460.506V431.46H402.731C399.847 431.46 397.508 433.799 397.508 436.685Z" fill="white"/>
<path d="M404.528 437.089H455.312" stroke="#F5F5F5" stroke-miterlimit="10" stroke-linecap="round" stroke-linejoin="round"/>
<path d="M404.528 441.619H455.312" stroke="#F5F5F5" stroke-miterlimit="10" stroke-linecap="round" stroke-linejoin="round"/>
<path d="M386.466 437.089V447.2" stroke="#1D1141" stroke-miterlimit="10" stroke-linecap="round" stroke-linejoin="round"/>
<path d="M381.305 437.089V447.2" stroke="#1D1141" stroke-miterlimit="10" stroke-linecap="round" stroke-linejoin="round"/>
<path d="M212.069 432.193H163.966C157.413 412.97 152.226 391.786 148.429 373.807C143.332 349.61 140.744 331.204 140.744 331.204L124.781 260.204L171.886 216.941C171.886 216.941 184.892 283.796 190.953 321.884C193.406 337.231 196.262 353.206 199.063 368.06C205.706 403.224 212.069 432.193 212.069 432.193Z" fill="#FFC9B1"/>
<path d="M172.351 314.536C175.503 318.467 181.533 319.739 186.002 317.414" stroke="#1D1141" stroke-miterlimit="10" stroke-linecap="round" stroke-linejoin="round"/>
<path d="M212.069 432.193H163.966C157.413 412.969 152.226 391.786 148.429 373.806L199.063 368.06C205.706 403.223 212.069 432.193 212.069 432.193Z" fill="white"/>
<path d="M154.855 389.304C170.314 388.019 185.774 386.734 201.233 385.449" stroke="#1D1141" stroke-miterlimit="10" stroke-linecap="round" stroke-linejoin="round"/>
<path d="M161.154 427.021L168.425 451.776H218.827C220.553 451.776 221.533 449.802 220.49 448.428L219.665 447.341C216.5 443.168 214.306 438.342 213.242 433.214L211.154 423.149C210.151 418.317 203.94 416.893 200.932 420.805L195.452 427.935L161.154 427.021Z" fill="#FF692D"/>
<path d="M168.534 448.013C182.944 448.415 197.917 449.601 212.327 450.004C213.688 447.211 217.818 446.273 220.252 448.203" stroke="#1D1141" stroke-miterlimit="10" stroke-linecap="round" stroke-linejoin="round"/>
<path d="M212.252 431.011C208.594 432.042 204.936 433.074 201.278 434.104C205.139 434.533 209.001 434.961 212.862 435.39C209.737 436.682 206.61 437.975 203.485 439.266C207.21 439.254 210.935 439.242 214.66 439.229" stroke="#1D1141" stroke-miterlimit="10" stroke-linecap="round" stroke-linejoin="round"/>
<path d="M121.163 434.467H74.9421C74.9421 434.467 73.2953 404.602 71.4806 373.818C70.5956 358.684 69.6658 343.336 68.8593 331.204C66.4284 294.394 66.7756 250.503 70.6964 218.252L118.116 273.121L117.231 331.204C117.231 331.204 119.516 349.8 120.849 375.072C121.801 392.929 122.283 414.124 121.163 434.467Z" fill="#FFC9B1"/>
<path d="M67.3398 320.907C70.733 322.29 75.0952 320.215 76.1616 316.709" stroke="#1D1141" stroke-miterlimit="10" stroke-linecap="round" stroke-linejoin="round"/>
<path d="M120.848 375.073C121.801 392.929 122.282 414.124 121.162 434.467H74.9415C74.9415 434.467 73.2948 404.602 71.48 373.818L120.848 375.073Z" fill="white"/>
<path d="M73.6379 389.248C88.3957 389.556 103.154 389.863 117.911 390.171" stroke="#1D1141" stroke-miterlimit="10" stroke-linecap="round" stroke-linejoin="round"/>
<path d="M81.817 421.321L85.4813 428.137L122.606 425.843V451.367H64.011C62.1369 451.367 61.2228 449.078 62.5816 447.788L63.89 446.544C69.2884 441.416 72.7645 434.591 73.7368 427.209L74.3317 422.691C74.8391 418.844 79.9787 417.904 81.817 421.321Z" fill="#FF692D"/>
<path d="M65.2505 445.859C66.1322 446.735 67.0127 447.611 67.8943 448.487C85.9927 447.991 103.781 447.667 121.878 447.171" stroke="#1D1141" stroke-miterlimit="10" stroke-linecap="round" stroke-linejoin="round"/>
<path d="M72.6267 432.57C75.1562 433.185 77.6868 433.801 80.2163 434.416C77.2645 434.992 74.3127 435.568 71.3609 436.143C73.1857 436.969 75.0106 437.795 76.8365 438.62C74.1077 439.054 71.3777 439.486 68.6488 439.92" stroke="#1D1141" stroke-miterlimit="10" stroke-linecap="round" stroke-linejoin="round"/>
<path d="M198.491 284.209L165.629 182.334L78.5997 178.31C78.5997 178.31 59.7183 219.731 62.1996 294.333L126.03 295.264L128.12 302.907L198.491 284.209Z" fill="#546CFF"/>
<path d="M126.031 295.265L115.024 234.386" stroke="#1D1141" stroke-miterlimit="10" stroke-linecap="round" stroke-linejoin="round"/>
<path d="M62.2007 282.548L123.263 284.017" stroke="#1D1141" stroke-miterlimit="10" stroke-linecap="round" stroke-linejoin="round"/>
<path d="M125.187 290.591L194.133 274.253" stroke="#1D1141" stroke-miterlimit="10" stroke-linecap="round" stroke-linejoin="round"/>
<path d="M115.123 283.018C116.084 274.482 117.494 265.997 119.343 257.609" stroke="#1D1141" stroke-miterlimit="10" stroke-linecap="round" stroke-linejoin="round"/>
<path d="M165.846 199.201C172.319 224.775 178.791 250.35 185.263 275.925" stroke="#1D1141" stroke-miterlimit="10" stroke-linecap="round" stroke-linejoin="round"/>
<path d="M76.5427 187.333C102.282 187.934 128.022 188.536 153.761 189.137" stroke="#1D1141" stroke-miterlimit="10" stroke-linecap="round" stroke-linejoin="round"/>
<path d="M147.47 189.082C151.157 200.765 159.373 210.955 170.009 217.034" stroke="#1D1141" stroke-miterlimit="10" stroke-linecap="round" stroke-linejoin="round"/>
<path d="M84.3678 187.787C79.6192 193.67 74.8694 199.553 70.1208 205.436" stroke="#1D1141" stroke-miterlimit="10" stroke-linecap="round" stroke-linejoin="round"/>
<path d="M17.5427 161.598C20.8944 168.976 30.9148 178.579 37.3472 182.335C49.3358 189.334 68.066 200.927 77.7828 180.917L91.5661 146.848L17.5427 161.598Z" fill="#FFC9B1"/>
<path d="M53.499 164.914C55.0594 168.031 55.3092 171.781 54.1756 175.079C53.043 178.377 50.5416 181.18 47.3948 182.681" stroke="#1D1141" stroke-miterlimit="10" stroke-linecap="round" stroke-linejoin="round"/>
<path d="M70.4901 163.165C72.6555 163.28 74.7705 164.19 76.3444 165.682C77.9183 167.174 78.9389 169.238 79.1696 171.395" stroke="#1D1141" stroke-miterlimit="10" stroke-linecap="round" stroke-linejoin="round"/>
<path d="M128.383 101.02C128.383 101.02 143.187 103.619 157.211 106.694C171.235 109.769 193.866 119.796 193.866 119.796L172.128 149.931L165.041 143.705L165.629 182.335L77.7828 180.916L86.1722 154.158L75.5614 123.33C85.7689 108.779 94.7307 107.75 102.902 105.497C111.073 103.244 128.383 101.02 128.383 101.02Z" fill="#1D1141"/>
<path d="M165.85 144.801C164.178 142.915 162.505 141.028 160.833 139.142C157.132 134.967 154.568 129.379 154.767 123.803C154.965 118.227 157.619 112.782 161.888 109.19" stroke="white" stroke-miterlimit="10" stroke-linecap="round" stroke-linejoin="round"/>
<path d="M85.9237 153.199C89.5555 138.314 93.1872 123.429 96.819 108.544" stroke="white" stroke-miterlimit="10" stroke-linecap="round" stroke-linejoin="round"/>
<path d="M109.954 105.759C109.774 110.302 111.571 114.891 114.79 118.103C119.777 123.077 127.881 124.334 134.414 121.698C140.946 119.063 145.773 112.92 147.473 106.085" stroke="white" stroke-miterlimit="10" stroke-linecap="round" stroke-linejoin="round"/>
<path d="M136.752 72.7147C133.254 68.9407 128.067 67.5292 122.927 67.7678C117.569 68.0165 112.211 68.2652 106.853 68.5139C107.498 70.2962 108.135 72.0493 108.77 73.7957C110.81 73.4059 112.85 73.0161 114.89 72.6262C113.191 73.9526 111.493 75.2789 109.793 76.6053C111.625 81.6328 113.441 86.6066 115.31 91.7698L128.297 95.6222C133.443 95.611 138.284 91.9199 139.965 87.0559C141.649 82.1941 140.252 76.4888 136.752 72.7147Z" fill="#FFCD01"/>
<path d="M141.396 105.708C139.108 105.062 136.707 104.415 134.418 103.769C134.102 100.958 133.645 97.889 133.33 95.0784C135.725 94.8958 137.97 93.2132 138.711 90.9291C139.452 88.6438 138.571 85.9004 136.575 84.564C134.578 83.2275 131.628 83.4986 129.983 85.2507C128.364 82.3482 126.745 79.0849 125.125 76.1813C123.807 76.1354 122.406 75.9875 121.089 75.9416C118.486 75.8497 115.935 77.5323 114.905 79.9229C113.572 83.0158 112.986 86.2477 112.108 89.4986C111.494 91.7715 112.539 94.3659 114.306 95.9219C116.072 97.4779 118.427 98.1657 120.727 98.6676C120.841 100.426 120.755 102.152 120.87 103.91C118.626 104.468 116.475 105.185 114.233 105.744C114.876 110.077 117.204 113.978 121.095 115.991C124.986 118.003 129.844 118.024 133.753 116.046C137.662 114.065 140.715 110.036 141.396 105.708Z" fill="#FFC9B1"/>
<path d="M123.55 88.2753C124.044 88.2753 124.446 87.8743 124.446 87.3795C124.446 86.8847 124.044 86.4836 123.55 86.4836C123.055 86.4836 122.654 86.8847 122.654 87.3795C122.654 87.8743 123.055 88.2753 123.55 88.2753Z" fill="#1D1141"/>
<path d="M114.783 86.5474C115.278 86.5474 115.679 86.1464 115.679 85.6516C115.679 85.1568 115.278 84.7557 114.783 84.7557C114.289 84.7557 113.888 85.1568 113.888 85.6516C113.888 86.1464 114.289 86.5474 114.783 86.5474Z" fill="#1D1141"/>
<path d="M132.989 88.6794C133.877 88.2965 134.764 87.9135 135.652 87.5316" stroke="#1D1141" stroke-miterlimit="10" stroke-linecap="round" stroke-linejoin="round"/>
<path d="M120.391 98.7241C122.4 98.9986 124.463 98.8709 126.423 98.3511" stroke="#1D1141" stroke-miterlimit="10" stroke-linecap="round" stroke-linejoin="round"/>
<path d="M132.488 95.0889C132.948 95.0509 133.41 95.0128 133.87 94.9758" stroke="#1D1141" stroke-miterlimit="10" stroke-linecap="round" stroke-linejoin="round"/>
<path d="M118.545 85.697C118.094 86.7825 117.643 87.868 117.193 88.9524C117.631 88.9838 118.069 89.0151 118.507 89.0465" stroke="#1D1141" stroke-miterlimit="10" stroke-linecap="round" stroke-linejoin="round"/>
<path d="M114.007 81.7175C114.847 81.7623 115.686 81.8071 116.527 81.8519" stroke="#1D1141" stroke-miterlimit="10" stroke-linecap="round" stroke-linejoin="round"/>
<path d="M122.01 81.0712C122.949 81.1036 123.887 81.1361 124.827 81.1686" stroke="#1D1141" stroke-miterlimit="10" stroke-linecap="round" stroke-linejoin="round"/>
<path d="M119.331 90.9935C119.528 91.4269 120.009 91.7136 120.484 91.6811C120.958 91.6486 121.396 91.3004 121.533 90.8446" stroke="#1D1141" stroke-miterlimit="10" stroke-linecap="round" stroke-linejoin="round"/>
<path d="M216.289 140.344C209.888 132.202 201.175 126.221 192.013 121.39L173.246 148.088C174.935 149.609 176.623 151.132 178.311 152.653C172.789 157.063 167.236 161.214 161.715 165.624C155.792 170.354 151.766 176.999 149.358 184.185C149.026 185.173 149.509 186.553 150.202 187.332C150.896 188.11 151.941 188.561 152.983 188.534C152.603 189.694 152.9 191.032 153.724 191.934C154.549 192.836 155.873 193.248 157.062 192.972C156.803 194.107 157.282 195.246 158.14 196.034C158.997 196.821 160.286 197.104 161.395 196.748C161.279 197.725 161.715 198.561 162.367 199.298C163.019 200.035 163.992 200.477 164.976 200.481C167.232 200.492 169.709 201.001 171.949 201.262C172.564 200.076 173.323 198.793 173.938 197.608C173.884 197.4 173.831 197.194 173.777 196.987C173.307 196.841 172.795 196.83 172.319 196.956C174.837 194.069 177.284 190.554 179.802 187.666C186.454 180.039 198.049 178.708 207.179 174.344C213.311 171.412 218.428 166.172 220.208 159.613C221.987 153.051 220.49 145.686 216.289 140.344Z" fill="#FFC9B1"/>
<path d="M177.694 153.02C182.015 149.863 186.336 146.706 190.658 143.55" stroke="#1D1141" stroke-miterlimit="10" stroke-linecap="round" stroke-linejoin="round"/>
<path d="M169.525 199.015C170.651 198.159 171.778 197.303 172.904 196.448" stroke="#1D1141" stroke-miterlimit="10" stroke-linecap="round" stroke-linejoin="round"/>
<path d="M161.284 195.498C161.284 196.332 161.284 197.167 161.284 198.001" stroke="#1D1141" stroke-miterlimit="10" stroke-linecap="round" stroke-linejoin="round"/>
<path d="M157.068 191.807C157.024 192.378 156.981 192.949 156.936 193.519" stroke="#1D1141" stroke-miterlimit="10" stroke-linecap="round" stroke-linejoin="round"/>
<path d="M152.85 187.59C152.763 188.029 152.674 188.468 152.587 188.907" stroke="#1D1141" stroke-miterlimit="10" stroke-linecap="round" stroke-linejoin="round"/>
<path d="M51.6233 135.645L30.3872 164.082L19.4056 99.2008C19.0382 97.0309 19.5759 94.8061 20.8922 93.044L40.0671 67.3673L51.6233 135.645Z" fill="#FF692D"/>
<path d="M88.1513 161.744L31.3446 169.736L19.7884 101.458L76.5962 93.4662L88.1513 161.744Z" fill="#FF692D"/>
<path d="M26.5942 103.771L36.0882 163.119" stroke="#1D1141" stroke-miterlimit="10" stroke-linecap="round" stroke-linejoin="round"/>
<path d="M43.7707 118.332L66.4889 114.974" stroke="#1D1141" stroke-miterlimit="10" stroke-linecap="round" stroke-linejoin="round"/>
<path d="M45.3086 123.803L66.4887 120.728" stroke="#1D1141" stroke-miterlimit="10" stroke-linecap="round" stroke-linejoin="round"/>
<path d="M76.5959 93.467L75.9675 88.6029L47.5485 90.4614L43.77 66.9366L40.0665 67.3679L20.877 93.2093C18.3039 96.6742 21.1985 101.523 25.4699 100.901L76.5959 93.467Z" fill="#F5F5F5"/>
<path d="M43.7703 66.9366L24.2705 96.1275C24.2705 96.1275 29.0976 92.3075 47.5488 90.4614" stroke="#1D1141" stroke-miterlimit="10" stroke-linecap="round" stroke-linejoin="round"/>
<path d="M37.6552 154.494C37.5667 153.907 37.4737 153.308 37.1959 152.783C36.9192 152.257 36.2258 151.888 35.6332 151.839C34.6832 156.772 33.7333 161.703 32.7833 166.635C30.9473 159.34 28.8401 152.313 27.0041 145.018C26.7554 144.029 26.0239 143.05 25.0078 142.956C24.9586 144.01 24.6449 144.757 24.5967 145.811C24.7188 145.289 23.9672 144.594 23.4351 144.658C21.5632 150.243 19.4146 156.012 17.5427 161.598C21.6012 169.797 28.8401 176.04 37.5051 178.976L40.0547 170.323C39.2549 165.047 38.455 159.771 37.6552 154.494Z" fill="#FFC9B1"/>
<path d="M24.5676 145.55C24.5206 151.744 24.4735 157.939 24.4265 164.133" stroke="#1D1141" stroke-miterlimit="10" stroke-linecap="round" stroke-linejoin="round"/>
<path d="M19.9269 161.212C20.9945 156.998 22.062 152.785 23.1285 148.571" stroke="#1D1141" stroke-miterlimit="10" stroke-linecap="round" stroke-linejoin="round"/>
<path d="M32.7877 165.318C32.6119 166.108 32.4361 166.899 32.2603 167.69" stroke="#1D1141" stroke-miterlimit="10" stroke-linecap="round" stroke-linejoin="round"/>
<path d="M344.437 366.436L344.258 366.155C339.869 359.289 338.622 350.875 340.831 343.031L343.817 332.429L298.611 321.227C298.611 321.227 289.613 348.364 289.959 347.894C290.306 347.422 317.263 369.588 317.263 369.588H342.711C344.33 369.589 345.309 367.8 344.437 366.436Z" fill="#1D1141"/>
<path d="M298.65 353.566C300.102 351.945 301.554 350.326 303.005 348.705C302.902 351.846 302.799 354.987 302.696 358.128C302.691 357.866 302.685 357.603 302.68 357.34" stroke="white" stroke-miterlimit="10" stroke-linecap="round" stroke-linejoin="round"/>
<path d="M324.598 343.05C328.359 343.416 332.12 343.783 335.881 344.15" stroke="white" stroke-miterlimit="10" stroke-linecap="round" stroke-linejoin="round"/>
<path d="M323.783 348.079C327.636 348.44 331.487 348.799 335.338 349.16" stroke="white" stroke-miterlimit="10" stroke-linecap="round" stroke-linejoin="round"/>
<path d="M324.061 353.009C328.187 353.329 332.314 353.651 336.44 353.972" stroke="white" stroke-miterlimit="10" stroke-linecap="round" stroke-linejoin="round"/>
<path d="M379.004 390.087L386.466 417.222L439.307 433.443C441.199 434.024 442.722 431.836 441.522 430.263C434.343 420.864 429.071 410.152 426.004 398.73L421.508 381.982L379.004 390.087Z" fill="#1D1141"/>
<path d="M397.06 419.805C397.621 418.578 398.181 417.352 398.742 416.125C400.168 418.252 401.594 420.381 403.02 422.508" stroke="white" stroke-miterlimit="10" stroke-linecap="round" stroke-linejoin="round"/>
<path d="M419.736 406.941C422.103 406.559 424.47 406.177 426.839 405.794" stroke="white" stroke-miterlimit="10" stroke-linecap="round" stroke-linejoin="round"/>
<path d="M421.583 411.964C424.04 411.597 426.498 411.232 428.956 410.867" stroke="white" stroke-miterlimit="10" stroke-linecap="round" stroke-linejoin="round"/>
<path d="M423.178 417.539C426.07 416.893 428.962 416.248 431.855 415.602" stroke="white" stroke-miterlimit="10" stroke-linecap="round" stroke-linejoin="round"/>
<path d="M262.634 239.906C264.148 274.638 276.606 279.77 314.462 279.77C314.462 279.77 305.944 295.085 295.919 324.597L343.351 341.259L359.327 307.269L361.478 311.93C361.478 311.93 363.027 347.28 377.343 395.372L427.93 393.14C427.93 393.14 413.569 328.213 408.643 304.688C403.717 281.164 395.75 266.736 381.25 248.843C366.75 230.951 340.472 203.963 340.472 203.963L262.634 239.906Z" fill="#FF692D"/>
<path d="M314.175 280.378C317.24 273.488 321.011 266.911 325.409 260.786" stroke="#1D1141" stroke-miterlimit="10" stroke-linecap="round" stroke-linejoin="round"/>
<path d="M360.024 239.853C367.043 242.014 373.013 247.358 375.938 254.093C378.863 260.831 378.688 268.84 375.474 275.444C369.993 286.705 364.584 298.005 358.996 309.213" stroke="#1D1141" stroke-miterlimit="10" stroke-linecap="round" stroke-linejoin="round"/>
<path d="M270.01 235.879C268.32 244.406 271.025 253.685 277.033 259.967C283.041 266.249 292.188 269.367 300.783 268.059C310.521 266.578 319.102 260.772 325.436 253.228C324.809 255.089 326.069 257.353 327.98 257.805C329.892 258.256 332.03 256.794 332.303 254.849C321.911 278.53 311.521 302.213 301.13 325.894" stroke="#1D1141" stroke-miterlimit="10" stroke-linecap="round" stroke-linejoin="round"/>
<path d="M364.684 297.048C369.461 330.093 376.673 362.784 386.244 394.77" stroke="#1D1141" stroke-miterlimit="10" stroke-linecap="round" stroke-linejoin="round"/>
<path d="M393.121 292.998C396.765 295.267 401.789 295.061 405.236 292.503" stroke="#1D1141" stroke-miterlimit="10" stroke-linecap="round" stroke-linejoin="round"/>
<path d="M306.523 128.571C302.385 124.674 296.305 122.973 290.646 123.494C284.987 124.015 279.571 126.837 275.903 131.179C272.717 134.949 269.907 139.237 268.504 143.969C268.211 144.953 267.724 145.987 268.201 146.896C268.68 147.804 269.753 148.361 270.771 148.229C270.42 148.948 270.47 149.87 271.016 150.454C271.563 151.038 272.48 151.239 273.222 150.938C273.218 151.827 273.755 152.739 274.574 153.085C275.393 153.431 276.412 153.237 277.046 152.615C277.925 154.6 280.165 155.916 282.329 155.758L302.615 135.537C303.637 136.144 305.109 135.815 305.775 134.828C306.44 133.842 306.197 132.353 305.25 131.632C305.981 131.737 306.579 131.271 306.899 130.606C307.221 129.941 307.061 129.078 306.523 128.571Z" fill="#1D1141"/>
<path d="M284.517 151.217C284.517 151.217 269.484 158.597 260.26 162.947C251.035 167.295 247.731 173.924 244.226 182.996C240.72 192.07 234.43 207.866 232.585 227.975C230.74 248.084 245.499 255.724 260.26 250.191L269.354 232.137L335.777 218.221L361.212 177.718C361.212 177.718 348.018 168.961 340.151 162.9C332.284 156.838 326.206 155.489 316.56 154.61C306.914 153.729 287.014 152.139 287.014 152.139L284.517 151.217Z" fill="white"/>
<path d="M252.793 168.008C255.412 167.173 258.367 167.452 260.784 168.762C263.202 170.071 265.048 172.396 265.778 175.046C269.417 188.249 268.206 202.429 264.925 215.725C258.736 213.066 251.526 212.9 245.13 215.011" stroke="#1D1141" stroke-miterlimit="10" stroke-linecap="round" stroke-linejoin="round"/>
<path d="M324.424 156.621C325.054 161.823 325.684 167.024 326.312 172.225" stroke="#1D1141" stroke-miterlimit="10" stroke-linecap="round" stroke-linejoin="round"/>
<path d="M271.458 160.594C272.577 168.301 277.875 175.27 285.002 178.41C292.129 181.55 300.848 180.756 307.29 176.38C313.733 172.004 317.685 164.192 317.393 156.41" stroke="#1D1141" stroke-miterlimit="10" stroke-linecap="round" stroke-linejoin="round"/>
<path d="M296.737 154.447C296.796 153.71 296.853 152.985 296.911 152.259C299.422 152.034 301.81 150.649 303.224 148.56C304.695 146.388 304.931 143.666 304.399 141.097C303.904 138.709 303.466 136.478 302.971 134.09C301.983 134.578 300.653 134.43 299.947 133.584C299.722 134.593 298.865 135.432 297.851 135.635C296.837 135.838 295.886 135.56 295.29 134.715C295.101 135.397 294.504 135.95 293.808 136.084C293.113 136.22 292.255 135.98 291.824 135.419C292.035 136.588 291.561 137.855 290.636 138.6C289.711 139.345 288.299 139.585 287.201 139.13C287.15 140.021 286.442 140.916 285.562 141.069C285.28 140.674 285.074 140.042 284.792 139.646C282.816 138.947 280.402 139.519 279.021 141.013C277.64 142.507 277.387 144.821 278.416 146.544C279.297 148.019 281.065 148.968 282.863 149.018C282.65 150.712 282.437 152.405 282.224 154.098C280.082 155.218 277.766 156.412 275.623 157.531C275.469 164.126 279.307 170.168 285.007 173.491C290.706 176.812 298.21 176.771 303.872 173.387C309.535 170.002 312.99 162.63 312.765 156.036C307.467 155.467 302.038 155.016 296.737 154.447Z" fill="#A77456"/>
<path d="M292.713 143.183C293.208 143.183 293.609 142.782 293.609 142.287C293.609 141.792 293.208 141.391 292.713 141.391C292.219 141.391 291.818 141.792 291.818 142.287C291.818 142.782 292.219 143.183 292.713 143.183Z" fill="#1D1141"/>
<path d="M301.842 141.77C302.337 141.77 302.738 141.369 302.738 140.875C302.738 140.38 302.337 139.979 301.842 139.979C301.348 139.979 300.947 140.38 300.947 140.875C300.947 141.369 301.348 141.77 301.842 141.77Z" fill="#1D1141"/>
<path d="M282.63 149.126C283.322 149.141 284.014 149.154 284.706 149.169" stroke="#1D1141" stroke-miterlimit="10" stroke-linecap="round" stroke-linejoin="round"/>
<path d="M290.812 151.42C292.889 152.671 295.506 152.985 297.82 152.261" stroke="#1D1141" stroke-miterlimit="10" stroke-linecap="round" stroke-linejoin="round"/>
<path d="M296.77 154.149C296.731 154.775 296.692 155.4 296.653 156.026" stroke="#1D1141" stroke-miterlimit="10" stroke-linecap="round" stroke-linejoin="round"/>
<path d="M297.655 141.2C298.018 142.122 298.38 143.044 298.743 143.967C298.347 143.997 297.856 144.149 297.461 144.18" stroke="#1D1141" stroke-miterlimit="10" stroke-linecap="round" stroke-linejoin="round"/>
<path d="M294.301 145.35C294.603 146.069 295.58 146.404 296.26 146.021" stroke="#1D1141" stroke-miterlimit="10" stroke-linecap="round" stroke-linejoin="round"/>
<path d="M291.213 138.632C291.236 137.939 291.732 137.287 292.393 137.079C293.054 136.87 293.834 137.12 294.251 137.673" stroke="#1D1141" stroke-miterlimit="10" stroke-linecap="round" stroke-linejoin="round"/>
<path d="M300.82 136.956C301.512 136.856 302.203 136.757 302.895 136.658" stroke="#1D1141" stroke-miterlimit="10" stroke-linecap="round" stroke-linejoin="round"/>
<path d="M281.354 142.654C282.177 142.854 283 143.053 283.823 143.253" stroke="#1D1141" stroke-miterlimit="10" stroke-linecap="round" stroke-linejoin="round"/>
<path d="M405.305 217.267C409.448 213.026 412.406 194.518 407.303 187.398C402.2 180.276 388.332 179.156 388.332 179.156L391.459 214.061L405.305 217.267Z" fill="#A77456"/>
<path d="M302.962 202.497C296.646 202.43 289.777 206.49 286.884 212.106L316.651 219.747C317.202 214.17 317.666 208.525 318.217 202.949C313.175 202.192 308.041 202.039 302.962 202.497Z" fill="#A77456"/>
<path d="M318.254 170.815L318.892 166.136L352.432 169.451C356.676 169.87 360.822 170.982 364.706 172.743L368.521 174.473C371.325 168.459 375.615 163.262 380.988 159.369L394.238 149.767L400.209 151.836C400.209 151.836 384.336 186.016 384.768 185.09C385.199 184.165 318.254 170.815 318.254 170.815Z" fill="#F5F5F5"/>
<path d="M392.065 216.574L366.261 237.82C363.493 240.098 359.921 241.158 356.359 240.757L310.111 235.554L318.254 170.815L364.534 176.022C368.1 176.423 371.676 175.361 374.444 173.078L400.207 151.835L392.065 216.574Z" fill="#546CFF"/>
<path d="M364.757 176.968L356.614 241.707" stroke="#1D1141" stroke-miterlimit="10" stroke-linecap="round" stroke-linejoin="round"/>
<path d="M373.725 174.213L365.583 238.952" stroke="#1D1141" stroke-miterlimit="10" stroke-linecap="round" stroke-linejoin="round"/>
<path d="M326.879 189.353L353.301 192.326" stroke="#1D1141" stroke-miterlimit="10" stroke-linecap="round" stroke-linejoin="round"/>
<path d="M326.409 193.522L352.833 196.495" stroke="#1D1141" stroke-miterlimit="10" stroke-linecap="round" stroke-linejoin="round"/>
<path d="M325.98 197.345L352.403 200.318" stroke="#1D1141" stroke-miterlimit="10" stroke-linecap="round" stroke-linejoin="round"/>
<path d="M390.177 178.562L381.337 185.85L378.551 209.535L387.189 202.313L390.177 178.562Z" stroke="#1D1141" stroke-miterlimit="10" stroke-linecap="round" stroke-linejoin="round"/>
<path d="M403.745 192.605C398.035 194.915 392.326 197.226 386.617 199.536C386.013 199.78 385.396 200.033 384.913 200.47C384.43 200.907 384.102 201.574 384.243 202.21C385.408 202.184 386.672 202.164 387.836 202.137C386.99 202.343 386.007 202.675 385.162 202.882C384.698 202.995 384.218 203.115 383.839 203.404C383.31 203.806 383.046 204.527 383.19 205.174C386.49 205.642 389.877 206.13 393.177 206.598C390.824 206.676 388.401 206.846 386.049 206.924C385.512 206.942 384.953 206.965 384.478 207.216C384.003 207.467 383.643 208.021 383.791 208.537C387.495 210.007 391.24 211.507 394.945 212.977C393.094 212.919 391.183 212.783 389.333 212.726C388.837 212.71 388.319 212.7 387.87 212.916C387.423 213.132 387.082 213.653 387.239 214.124C390.578 215.351 393.678 216.481 397.017 217.708C399.598 218.657 402.702 218.153 405.306 217.267L403.745 192.605Z" fill="#A77456"/>
<path d="M394.733 196.19C397.206 195.005 399.679 193.821 402.152 192.636" stroke="#1D1141" stroke-miterlimit="10" stroke-linecap="round" stroke-linejoin="round"/>
<path d="M386.309 202.095C391.452 201.82 396.595 201.546 401.737 201.271" stroke="#1D1141" stroke-miterlimit="10" stroke-linecap="round" stroke-linejoin="round"/>
<path d="M390.085 206.178C393.577 206.772 397.07 207.367 400.561 207.962" stroke="#1D1141" stroke-miterlimit="10" stroke-linecap="round" stroke-linejoin="round"/>
<path d="M392.461 212.123C394.76 212.809 397.059 213.494 399.356 214.18" stroke="#1D1141" stroke-miterlimit="10" stroke-linecap="round" stroke-linejoin="round"/>
<path d="M327.295 225.855C326.837 225.411 326.164 225.303 325.526 225.267C321.014 225.014 316.385 224.908 311.873 224.655C317.774 223.253 323.792 222.369 329.694 220.966C329.714 219.895 328.935 218.662 327.878 218.494C327.963 217.773 327.73 217.019 327.252 216.471C326.774 215.923 325.994 215.938 325.314 215.679C319.039 213.291 312.765 210.902 306.49 208.514L301.773 205.022C295.583 204.603 289.488 206.445 283.557 208.266C272.823 211.563 261.57 214.63 251.181 218.891C246.227 220.923 242.501 225.693 241.729 230.991C240.957 236.29 243.167 241.925 247.337 245.285C251.506 248.646 257.556 249.46 262.63 247.751C272.597 244.393 282.634 240.402 291.969 235.558C296.426 237.094 301.034 238.545 305.729 238.993C311.4 236.134 317.362 233.305 323.033 230.446C323.228 229.957 322.921 229.443 322.467 229.177C324.311 228.546 326.088 228.222 327.932 227.593C327.995 226.957 327.755 226.299 327.295 225.855Z" fill="#A77456"/>
<path d="M309.571 231.722C314.066 230.8 318.56 229.878 323.055 228.956" stroke="#1D1141" stroke-miterlimit="10" stroke-linecap="round" stroke-linejoin="round"/>
<path d="M308.226 224.984C310.402 224.597 312.578 224.21 314.754 223.823" stroke="#1D1141" stroke-miterlimit="10" stroke-linecap="round" stroke-linejoin="round"/>
<path d="M307.246 218.242C314.228 218.51 321.21 218.776 328.193 219.044" stroke="#1D1141" stroke-miterlimit="10" stroke-linecap="round" stroke-linejoin="round"/>
<path d="M306.091 207.551C308.658 208.741 311.227 209.931 313.795 211.122" stroke="#1D1141" stroke-miterlimit="10" stroke-linecap="round" stroke-linejoin="round"/>
</svg>
